<svg version="1.1" id="Layer_1" xmlns="http://www.w3.org/2000/svg" xmlns:xlink="http://www.w3.org/1999/xlink" x="0px" y="0px"
	 width="100%" viewBox="0 0 5424 688" enable-background="new 0 0 5424 688" xml:space="preserve">
<path fill="#FFFFFF" opacity="1.000000" stroke="none" 
	d="
M5303.000000,0.999930 
	C5343.665527,1.000000 5384.330566,1.000000 5424.997070,1.000000 
	C5424.998047,230.325012 5424.998047,459.650024 5424.999023,688.981323 
	C3617.063965,688.987549 1809.128052,688.987549 1.096053,688.987549 
	C1.096053,459.737793 1.096053,230.475555 1.096053,1.000000 
	C1748.041016,1.000000 3495.082031,1.000000 5242.542480,1.427699 
	C5242.514160,2.226781 5242.114746,2.828779 5241.611328,2.934096 
	C5236.524414,3.998595 5231.380859,4.821858 5226.337402,6.055751 
	C5223.837402,6.667256 5221.455566,8.937339 5219.120605,8.795651 
	C5214.361816,8.506952 5212.926758,11.354372 5212.200684,14.805572 
	C5211.429199,18.473312 5211.051270,22.290848 5211.047852,26.043436 
	C5210.982910,94.030106 5211.000000,162.016861 5211.000000,230.003586 
	C5211.000000,231.913773 5211.000000,233.823959 5211.000000,237.103943 
	C5203.123535,230.202957 5196.772461,223.419113 5189.259766,218.359619 
	C5179.544434,211.816269 5168.864258,206.714432 5158.687988,200.838638 
	C5156.497559,199.573914 5154.926270,196.950684 5152.651855,196.172623 
	C5146.398926,194.033096 5139.925293,192.538345 5133.537598,190.795212 
	C5132.442871,190.496414 5130.731934,190.579987 5130.337891,189.893753 
	C5127.733398,185.361832 5122.986816,186.484756 5119.355957,186.191956 
	C5105.210449,185.051239 5091.009277,184.281723 5076.819336,184.101410 
	C5060.621094,183.895599 5044.655762,184.598618 5028.753418,189.642990 
	C5018.391113,192.930115 5007.949707,195.893188 4998.134766,200.512741 
	C4989.848145,204.413254 4981.651855,208.720856 4974.106934,213.863297 
	C4971.481934,215.652420 4968.907227,217.401566 4966.169434,219.076233 
	C4963.104492,220.950882 4961.027344,224.397369 4958.399902,227.039642 
	C4952.530762,232.941086 4946.490234,238.675049 4940.726562,244.676239 
	C4938.777344,246.706039 4937.445312,249.330658 4935.841797,251.690338 
	C4932.978516,255.903580 4929.961914,260.024841 4927.324219,264.375244 
	C4925.729492,267.004486 4925.466797,271.057739 4923.286621,272.571747 
	C4919.938477,274.897034 4919.157227,277.997925 4917.910156,281.220917 
	C4916.380371,285.176056 4915.302246,289.498169 4912.924316,292.886444 
	C4909.666016,297.528931 4908.983398,302.784943 4907.560059,307.907410 
	C4907.127930,309.461304 4907.410645,311.925690 4906.466797,312.502045 
	C4902.351074,315.017548 4902.141602,318.802704 4901.937012,322.904175 
	C4901.758789,326.486633 4901.491211,330.153442 4900.552734,333.589172 
	C4899.004395,339.257874 4895.873047,344.652252 4895.205566,350.371948 
	C4893.586914,364.247406 4892.317383,378.235535 4892.156738,392.192719 
	C4891.901855,414.277863 4892.577148,436.376770 4893.073242,458.465057 
	C4893.178711,463.176971 4893.979492,467.910278 4894.857422,472.558746 
	C4896.033691,478.792328 4897.502441,484.976044 4899.019531,491.138489 
	C4900.569824,497.438110 4902.217285,503.720062 4904.080078,509.932587 
	C4904.536621,511.456299 4906.455566,512.541138 4906.915039,514.064941 
	C4908.911621,520.693665 4908.071777,527.916077 4912.805664,534.070557 
	C4916.119141,538.378174 4917.550293,544.109741 4919.990234,549.123596 
	C4921.135742,551.478027 4922.769531,553.589478 4924.018066,555.899902 
	C4926.751465,560.958923 4928.327637,567.208435 4932.301758,570.898193 
	C4938.081543,576.264771 4941.410645,583.446838 4947.867188,588.373596 
	C4956.489746,594.952393 4963.591309,603.490845 4973.294922,608.826233 
	C4975.432129,610.001526 4977.449707,611.407043 4979.464844,612.790222 
	C4981.405273,614.121765 4983.110840,615.902954 4985.202637,616.881653 
	C4989.276855,618.787720 4993.530273,620.321533 4997.743652,621.918213 
	C5004.906738,624.632690 5011.911133,628.122803 5019.319336,629.751526 
	C5030.443848,632.196960 5041.852051,634.617432 5053.153809,634.686340 
	C5068.976562,634.782959 5084.954102,637.208008 5100.738770,633.137024 
	C5105.439453,631.924683 5110.583984,632.541870 5115.477539,631.936096 
	C5119.973633,631.379517 5124.774414,631.106018 5128.774902,629.262634 
	C5134.149414,626.786499 5139.893066,625.433044 5145.268066,622.556946 
	C5151.363770,619.295715 5158.498047,618.162170 5164.500488,613.557739 
	C5169.951660,609.376099 5177.195801,607.922363 5182.648438,603.016907 
	C5187.688477,598.482056 5193.864258,595.230347 5199.391602,591.209045 
	C5202.302246,589.091248 5204.555176,585.341309 5207.706543,584.446350 
	C5213.003906,582.942078 5214.104492,575.753967 5220.287109,576.114502 
	C5220.504395,576.127136 5220.701660,575.276855 5221.021484,574.935242 
	C5223.624023,572.158081 5226.253906,569.406311 5228.875488,566.646667 
	C5229.250000,566.865601 5229.625000,567.084534 5230.000000,567.303406 
	C5230.000000,568.902832 5230.000000,570.502197 5230.000000,572.101562 
	C5230.000000,584.432495 5229.903809,596.764648 5230.063965,609.093567 
	C5230.105957,612.327820 5229.783691,617.003662 5231.646484,618.492004 
	C5236.181152,622.115051 5241.648926,625.098694 5247.213379,626.747131 
	C5252.293945,628.252258 5257.991699,627.891602 5263.421875,627.954224 
	C5275.917969,628.098389 5288.420898,627.800171 5300.912598,628.066284 
	C5310.106934,628.262146 5319.274902,628.100464 5327.063965,622.746155 
	C5330.272461,620.540771 5334.066406,618.013916 5334.064453,612.758118 
	C5333.988281,415.296661 5334.001465,217.835190 5333.994141,20.373722 
	C5333.993652,13.823040 5331.977051,11.134165 5325.548828,8.806946 
	C5325.090332,8.640886 5324.709473,8.272345 5324.268066,8.045755 
	C5318.690430,5.180374 5313.120605,2.418255 5306.515625,2.894075 
	C5305.395508,2.974796 5304.174316,1.666468 5303.000000,0.999930 
M1392.521973,214.158890 
	C1392.178101,214.357697 1392.080688,214.641190 1392.124512,215.939514 
	C1392.124512,228.597626 1392.124512,241.255722 1392.124512,254.677444 
	C1386.875366,250.896393 1382.749756,247.866196 1378.565186,244.919662 
	C1344.569092,220.981613 1306.606567,208.877701 1265.200684,208.260925 
	C1249.998901,208.034470 1234.656372,209.177902 1219.564819,211.136627 
	C1174.773438,216.950027 1137.336182,238.038681 1104.970825,268.704193 
	C1096.836060,276.411652 1089.509033,285.021057 1082.231567,293.573975 
	C1065.720947,312.978516 1054.112305,335.307587 1045.225952,358.983093 
	C1034.203491,388.349976 1030.257324,419.047974 1030.055908,450.275177 
	C1030.024170,455.211731 1030.635376,460.163208 1031.125732,465.090210 
	C1032.262695,476.514313 1033.075806,487.993500 1034.805298,499.330597 
	C1037.762207,518.714050 1045.714844,536.445068 1054.116699,553.963806 
	C1065.175049,577.021667 1079.352417,598.084961 1097.291138,616.196594 
	C1107.116821,626.117065 1118.415405,634.848206 1130.019165,642.679199 
	C1150.905518,656.774963 1172.917480,668.874695 1197.547241,675.593567 
	C1211.798340,679.481079 1226.166382,682.202026 1240.909546,682.936157 
	C1246.290894,683.204163 1251.687622,683.756287 1257.055786,683.566223 
	C1268.208740,683.171326 1279.482422,683.226562 1290.455688,681.501770 
	C1302.673706,679.581299 1314.616333,675.900879 1326.673096,672.962952 
	C1345.064331,668.481445 1362.145142,661.169067 1377.132080,649.406189 
	C1381.875366,645.683289 1386.518066,641.832458 1392.059570,637.350403 
	C1392.059570,650.365112 1392.059570,662.397949 1392.059570,674.612915 
	C1431.565796,674.612915 1470.451782,674.612915 1509.397949,674.612915 
	C1509.397949,520.938965 1509.397949,367.589233 1509.397949,214.134613 
	C1470.313599,214.134613 1431.662720,214.134613 1392.521973,214.158890 
M8.238185,97.499985 
	C8.238185,289.888458 8.238185,482.276917 8.238185,674.654175 
	C47.899666,674.654175 86.667038,674.654175 126.036720,674.654175 
	C126.036720,585.658447 126.036720,496.942627 126.036720,408.176331 
	C127.263222,408.006042 127.904587,407.839447 128.546036,407.839081 
	C158.877396,407.821899 189.209015,407.872162 219.539780,407.736389 
	C222.733429,407.722107 223.804184,409.425201 225.042770,411.726135 
	C244.614212,448.083252 264.255280,484.402863 283.838257,520.753784 
	C310.606934,570.443237 337.378052,620.131470 364.010284,669.894043 
	C365.977844,673.570557 368.107697,675.060913 372.419586,675.043335 
	C415.582825,674.867493 458.747040,674.936523 501.910980,674.936523 
	C503.512299,674.936523 505.113586,674.936462 507.785309,674.936462 
	C456.621521,580.533264 405.928406,486.998444 355.504913,393.961182 
	C368.991028,387.486877 382.609589,381.755219 395.453094,374.627014 
	C429.453400,355.756714 455.546234,329.229340 472.165039,293.653076 
	C483.854645,268.628876 489.242249,242.288116 489.942505,214.894730 
	C490.443237,195.306442 488.656097,175.928864 484.125763,156.762314 
	C477.161377,127.297653 463.870972,101.194557 443.903168,78.506424 
	C422.164795,53.806511 394.236786,38.564678 364.023193,27.029579 
	C327.831238,13.212053 289.919952,8.627756 251.581131,8.418880 
	C172.093857,7.985819 92.601624,8.486444 13.111395,8.511622 
	C9.672470,8.512712 8.493045,9.508334 8.493954,13.019403 
	C8.501158,40.846237 8.344698,68.673111 8.238185,97.499985 
M3129.547363,293.877777 
	C3123.718262,294.554413 3121.791748,300.044281 3118.091553,303.318207 
	C3116.388428,304.825226 3114.735352,306.945312 3114.189453,309.076904 
	C3113.303955,312.533081 3113.082275,316.224915 3113.048096,319.821686 
	C3112.925537,332.653748 3112.615479,345.504517 3113.175781,358.313202 
	C3113.424805,364.004730 3113.141113,370.366028 3118.050781,374.892426 
	C3119.288086,376.033142 3120.850098,376.869232 3121.918457,378.135956 
	C3124.662109,381.389374 3127.553955,384.033813 3132.226807,384.027771 
	C3170.559814,383.978485 3208.892578,384.000000 3247.225586,384.000000 
	C3249.010742,384.000000 3250.795898,384.000000 3252.786377,384.000000 
	C3252.786377,429.416931 3252.786377,474.360596 3252.786377,519.425049 
	C3249.338867,520.617249 3245.715088,521.556335 3242.386230,523.122437 
	C3239.798828,524.339661 3237.759033,527.324951 3235.160645,527.799866 
	C3228.110107,529.088501 3221.164062,530.080505 3214.247803,532.534912 
	C3207.454102,534.945862 3199.794189,535.894958 3192.530029,535.826416 
	C3165.704834,535.573303 3138.629395,538.573303 3112.331543,530.101929 
	C3103.382080,527.219055 3093.597656,526.443542 3085.166260,522.583496 
	C3077.922119,519.267029 3069.822266,517.548218 3063.428467,512.103333 
	C3058.346680,507.775696 3051.123291,507.334564 3046.179199,501.528717 
	C3042.159912,496.808685 3034.259521,495.668488 3031.335938,488.908844 
	C3031.218750,488.637238 3030.849854,488.279053 3030.606934,488.285858 
	C3024.870117,488.445892 3023.369629,482.753571 3020.340088,479.857483 
	C3014.478027,474.253479 3010.856689,466.380981 3005.395752,460.261566 
	C2999.118408,453.227600 2995.656006,444.687836 2991.090088,436.754730 
	C2988.944092,433.025543 2988.945068,427.931000 2986.478516,424.543243 
	C2981.480225,417.677734 2980.885010,409.403931 2978.323486,401.872467 
	C2975.634521,393.965637 2975.564941,385.167999 2974.298340,376.398315 
	C2973.545410,376.153992 2972.259277,375.736603 2971.130615,375.370361 
	C2970.491455,361.133942 2969.434570,347.282104 2969.379150,333.426239 
	C2969.330811,321.395691 2970.314209,309.353882 2971.103760,297.334259 
	C2971.230225,295.406219 2972.729004,293.568298 2973.977051,290.854767 
	C2975.825928,282.386566 2977.573486,272.760681 2980.105469,263.345764 
	C2981.837891,256.904022 2984.498291,250.688278 2987.050781,244.498199 
	C2989.113281,239.497238 2991.582275,234.659912 2993.970459,229.798950 
	C2995.553711,226.576645 2997.295898,223.431717 2998.998535,220.269226 
	C3000.179199,218.076157 3001.144043,215.698288 3002.672363,213.773651 
	C3007.989990,207.077560 3014.680176,201.167816 3018.630615,193.774048 
	C3022.690918,186.174896 3029.598389,181.824905 3035.066650,176.056259 
	C3041.300781,169.479919 3050.175537,165.489182 3057.437012,159.782425 
	C3065.906250,153.126572 3076.429199,150.757568 3085.589355,145.410263 
	C3094.055664,140.468124 3104.350586,138.610229 3113.910889,135.621185 
	C3116.523926,134.804123 3119.395508,134.823166 3122.143799,134.426605 
	C3132.319580,132.958328 3142.493408,130.246490 3152.667725,130.247635 
	C3176.292480,130.250290 3200.074707,127.909943 3223.511963,133.005219 
	C3233.784424,135.238358 3244.644043,132.898743 3254.645264,138.659210 
	C3260.003418,141.745239 3267.257324,141.392654 3273.518555,143.095825 
	C3280.974609,145.123917 3288.283691,147.692093 3295.656250,150.027664 
	C3295.961670,150.124420 3296.266846,150.225342 3296.564941,150.342255 
	C3302.201416,152.551743 3307.821533,154.803116 3313.477539,156.961090 
	C3316.931152,158.278641 3320.771240,158.913239 3323.852539,160.806976 
	C3329.945312,164.551682 3337.101807,165.808289 3342.889893,170.704636 
	C3347.082520,174.251343 3353.637207,175.004639 3359.136230,177.010406 
	C3359.714844,177.221497 3360.418701,177.335800 3360.823975,177.737671 
	C3364.403564,181.287598 3371.567871,180.897964 3374.770996,177.128693 
	C3377.006348,174.498398 3380.806641,172.513519 3381.695312,169.572006 
	C3383.325439,164.173752 3383.791504,158.291672 3383.907227,152.594330 
	C3384.191162,138.600204 3384.638428,124.553833 3383.708252,110.616066 
	C3383.294434,104.418137 3384.622803,97.622208 3379.331299,91.722313 
	C3375.478760,87.426552 3375.813477,79.510445 3367.944580,78.420303 
	C3365.701416,73.115692 3360.256104,72.000732 3355.939697,69.605721 
	C3349.756104,66.174751 3343.302490,63.172729 3336.776855,60.433632 
	C3330.943359,57.984924 3324.896729,56.015976 3318.870117,54.063229 
	C3312.220703,51.908611 3305.575928,49.602886 3298.763672,48.127872 
	C3292.678711,46.810192 3286.770264,45.269466 3280.816162,43.363979 
	C3272.832275,40.809036 3264.192627,40.238251 3255.802490,39.039593 
	C3249.807617,38.183144 3243.758057,37.717274 3237.737305,37.035404 
	C3232.772461,36.473110 3227.941895,37.641872 3222.863281,34.398296 
	C3219.209473,32.064896 3213.250244,33.015793 3208.323730,33.054630 
	C3179.726807,33.280064 3151.131348,33.667694 3122.535645,34.014183 
	C3121.889160,34.022011 3120.752441,34.043251 3120.672363,34.308208 
	C3119.301270,38.849064 3115.597900,36.511475 3112.903564,36.965027 
	C3110.484619,37.372162 3108.002930,37.390568 3105.571777,37.740387 
	C3098.311523,38.785099 3091.067139,39.942009 3083.807129,40.989746 
	C3078.469482,41.760113 3072.541016,41.211834 3067.899414,43.411537 
	C3059.909912,47.198105 3051.303467,48.253391 3043.124023,50.990829 
	C3037.902832,52.738178 3031.213623,52.499561 3027.496826,55.776295 
	C3021.989746,60.631191 3014.886230,59.903130 3009.246094,63.774441 
	C3003.672119,67.600433 2996.886230,69.638985 2990.697266,72.598129 
	C2986.464355,74.621826 2982.334717,76.863297 2978.175049,79.037651 
	C2974.896484,80.751381 2970.614258,81.741745 2968.607178,84.422760 
	C2965.227539,88.937614 2960.049561,89.374100 2955.976807,92.074478 
	C2952.965820,94.071007 2949.932373,96.077332 2947.165527,98.386726 
	C2944.382080,100.710381 2942.073486,103.605850 2939.274658,105.907799 
	C2934.647217,109.713730 2929.540771,112.964493 2925.104736,116.968269 
	C2920.503662,121.121300 2916.316895,125.766350 2912.214844,130.430191 
	C2908.914307,134.183228 2906.019531,138.292511 2902.927246,142.230133 
	C2901.157471,144.483170 2899.423340,146.769531 2897.550293,148.934967 
	C2893.854004,153.209381 2889.190674,156.780701 2887.985107,162.804214 
	C2887.774414,163.856491 2887.225342,165.233353 2886.401367,165.702774 
	C2882.783936,167.763214 2880.578369,170.660217 2879.600342,174.723587 
	C2879.162354,176.542496 2878.471436,179.085129 2877.123047,179.762451 
	C2871.678955,182.497177 2872.675293,189.032974 2868.451904,193.047134 
	C2864.542725,196.763046 2864.570312,204.218063 2861.356934,209.840164 
	C2856.908936,217.622681 2854.747559,226.782349 2852.102051,235.502533 
	C2850.001465,242.425705 2848.766602,249.606766 2846.914795,256.611755 
	C2845.624512,261.491547 2843.659424,266.202209 2842.524902,271.110687 
	C2841.682129,274.756561 2841.740967,278.604736 2841.306641,282.352203 
	C2840.232422,291.618164 2838.371826,300.860474 2838.149902,310.143860 
	C2837.664551,330.465424 2837.998779,350.806580 2838.003174,371.139740 
	C2838.003418,372.472443 2837.922852,373.820374 2838.087158,375.135345 
	C2839.362549,385.351715 2840.413086,395.607605 2842.100830,405.756897 
	C2843.164062,412.150208 2845.495361,418.326965 2846.680664,424.708130 
	C2847.245361,427.748383 2848.674072,430.189819 2849.692139,432.872009 
	C2852.261230,439.639801 2853.239258,446.999725 2855.046143,454.073608 
	C2855.970215,457.691376 2857.060059,461.307159 2858.506348,464.742157 
	C2860.914062,470.459351 2865.052979,475.272736 2866.520996,481.603180 
	C2867.160400,484.360260 2866.343994,489.243683 2871.657227,489.524841 
	C2871.924316,489.538940 2872.006104,491.024689 2872.360352,491.731964 
	C2875.189453,497.379578 2877.814697,503.154205 2881.060547,508.554382 
	C2882.174561,510.407745 2885.843262,510.875397 2886.668701,512.724365 
	C2889.105957,518.183594 2892.011475,522.940063 2895.735596,527.815430 
	C2901.764404,535.708679 2909.029785,542.380249 2915.107178,550.128540 
	C2915.906006,551.147278 2918.163574,551.305847 2918.548828,552.318115 
	C2920.512695,557.479736 2924.319336,560.054260 2929.446045,561.248352 
	C2930.153320,561.413086 2930.750732,562.233032 2931.305420,562.835754 
	C2932.864502,564.530579 2934.152100,566.567627 2935.958740,567.919373 
	C2938.403320,569.748657 2942.908691,570.531921 2943.597412,572.696594 
	C2946.238037,580.999390 2955.416992,579.984741 2960.268311,585.576660 
	C2964.633545,590.608582 2972.369141,592.792419 2978.748047,595.971741 
	C2982.234619,597.709534 2986.083252,598.713684 2989.602539,600.395935 
	C2994.146973,602.568359 2998.429443,605.294556 3002.996826,607.411743 
	C3010.508789,610.894165 3018.832031,611.844482 3026.178467,616.557556 
	C3031.294434,619.839844 3038.652344,619.593567 3044.987305,621.020508 
	C3050.689453,622.304810 3056.359619,623.729614 3062.047607,625.077515 
	C3069.006836,626.726624 3075.926758,628.590515 3082.947754,629.915771 
	C3087.286133,630.734680 3091.793701,630.612305 3096.203613,631.106506 
	C3107.258789,632.345459 3118.321777,634.924744 3129.345703,634.747070 
	C3153.198486,634.362427 3177.106201,637.138184 3200.943604,633.186096 
	C3209.849365,631.709534 3219.112305,632.490173 3228.194824,631.945007 
	C3234.236084,631.582214 3240.249756,630.730225 3246.268311,630.032104 
	C3254.719238,629.051697 3263.163330,628.012817 3271.609619,626.991638 
	C3272.256592,626.913452 3272.928223,626.866943 3273.535156,626.654114 
	C3276.933350,625.462158 3280.231445,623.840027 3283.719482,623.078369 
	C3291.819336,621.309753 3300.025391,620.034241 3308.153809,618.387512 
	C3312.429199,617.521362 3316.484131,616.828064 3320.666260,614.430054 
	C3325.908203,611.424011 3332.826416,611.386719 3338.987061,609.924133 
	C3345.301514,608.424988 3351.484619,606.684143 3357.283447,603.481384 
	C3361.614014,601.089539 3366.523682,599.753784 3371.137207,597.854431 
	C3371.563965,597.678833 3371.707520,596.825012 3371.990723,596.290344 
	C3374.420410,591.705444 3375.859375,585.937805 3379.543457,582.847961 
	C3383.792480,579.284119 3382.927979,575.509338 3382.932129,571.632263 
	C3383.021729,490.299774 3382.998535,408.967133 3383.003174,327.634552 
	C3383.003662,322.312073 3381.811279,317.571075 3379.144287,312.688171 
	C3375.789795,306.546295 3372.041016,301.177582 3365.834717,297.993591 
	C3358.933594,294.453033 3351.346680,293.067505 3343.681885,293.056824 
	C3274.182617,292.959869 3204.683105,292.997955 3135.183838,293.012543 
	C3133.530518,293.012878 3131.877197,293.199707 3129.547363,293.877777 
M2440.912598,229.597015 
	C2405.010498,207.115997 2365.466553,201.066330 2323.916260,202.903152 
	C2282.124512,204.750687 2245.845215,220.870453 2211.762207,244.960754 
	C2211.762207,165.748535 2211.762207,87.299728 2211.762207,8.545427 
	C2170.682617,8.545427 2129.950928,8.545427 2088.759766,8.545427 
	C2088.759766,230.735031 2088.759766,452.625275 2088.759766,674.532898 
	C2129.873291,674.532898 2170.756836,674.532898 2211.936279,674.532898 
	C2211.936279,660.146912 2211.936279,646.162415 2211.936279,632.177917 
	C2211.936279,547.178528 2211.923828,462.179108 2212.006348,377.179749 
	C2212.008301,375.034576 2212.361816,372.144135 2213.731689,370.867706 
	C2222.203613,362.972961 2230.391602,354.536041 2239.870117,348.019104 
	C2251.649414,339.920258 2264.243408,332.791901 2277.128906,326.579071 
	C2288.896729,320.905182 2302.008057,319.489380 2314.995117,317.810486 
	C2330.715820,315.778137 2345.912109,317.409149 2360.833740,321.969086 
	C2388.935547,330.556732 2407.961426,349.564880 2416.877686,376.914337 
	C2421.516113,391.142059 2422.794678,406.964874 2422.902832,422.086334 
	C2423.481445,503.081665 2423.213623,584.083069 2423.238281,665.082397 
	C2423.239014,667.201843 2423.238281,669.321289 2423.238281,671.632568 
	C2464.698242,671.632568 2505.579590,671.632568 2546.894775,671.632568 
	C2546.894775,669.499817 2546.913086,667.699951 2546.892090,665.900452 
	C2545.849609,575.987671 2549.231445,486.038940 2544.866943,396.159790 
	C2544.261230,383.687317 2542.407227,371.202301 2540.163574,358.899597 
	C2536.777344,340.332581 2528.691895,323.366669 2520.064453,306.775299 
	C2513.408936,293.976654 2506.089111,281.434906 2495.482666,271.370300 
	C2478.962891,255.694122 2461.031250,241.805389 2440.912598,229.597015 
M819.684021,569.160095 
	C727.313721,603.407104 648.585144,535.937134 643.506592,466.239777 
	C645.673828,466.239777 647.810669,466.239807 649.947449,466.239807 
	C749.610962,466.239807 849.274475,466.239777 948.937988,466.239716 
	C952.437866,466.239716 955.941833,466.134247 959.436340,466.271667 
	C962.229553,466.381561 963.582458,465.472870 964.085022,462.479401 
	C967.810974,440.285065 966.381714,418.093018 963.610657,396.012024 
	C961.133850,376.276001 954.625732,357.538849 948.125000,338.768341 
	C935.103821,301.170868 912.430786,270.436005 882.295410,245.186920 
	C853.617065,221.158478 820.354675,207.093155 783.152283,201.789032 
	C758.041687,198.208893 733.180786,198.513458 708.355530,203.060287 
	C667.944641,210.461639 631.341980,226.330322 601.200623,254.708542 
	C590.103394,265.156647 580.167664,277.131714 571.227600,289.511902 
	C556.122437,310.429535 543.969543,333.221191 537.478027,358.329498 
	C532.666504,376.939667 527.873047,395.902924 526.468750,414.959259 
	C524.625244,439.974915 524.589539,465.231262 529.019653,490.296356 
	C532.019348,507.268158 536.224182,523.854736 542.579956,539.730774 
	C555.304626,571.515564 574.616150,599.107544 598.867249,623.201172 
	C610.521912,634.780151 623.856873,644.190857 638.322205,651.972595 
	C655.796692,661.373169 673.923645,669.326782 693.117004,674.392212 
	C705.107117,677.556580 717.339478,680.055054 729.611816,681.815857 
	C738.974182,683.159119 748.568359,682.915894 758.062439,683.304993 
	C776.687744,684.068176 795.171448,683.071228 813.611206,679.987244 
	C837.990723,675.909851 860.873596,667.576660 882.943909,656.815857 
	C901.978760,647.535034 919.246033,635.520691 934.881042,621.266052 
	C941.702393,615.046875 947.972229,608.222778 954.532959,601.632874 
	C931.529846,575.692627 909.226868,550.541870 886.759766,525.206055 
	C866.356262,543.360474 845.349487,559.187988 819.684021,569.160095 
M3880.500000,628.000000 
	C3892.024170,627.944031 3903.676270,628.943054 3914.792480,624.908508 
	C3917.721924,623.845337 3920.359131,621.849548 3922.949707,620.025513 
	C3924.573486,618.882385 3925.859863,617.260315 3927.819824,615.341797 
	C3927.819824,479.004913 3927.819824,341.710114 3927.819824,206.096359 
	C3925.927734,203.716736 3924.952637,202.467560 3923.952637,201.238571 
	C3922.533691,199.495209 3921.418701,196.798538 3919.612061,196.196457 
	C3910.956055,193.312408 3902.032227,190.789276 3892.862549,191.102463 
	C3868.746338,191.926117 3844.417480,188.182465 3820.548340,194.094635 
	C3816.626465,195.066055 3812.213867,194.438141 3808.875488,197.948425 
	C3804.715088,202.322937 3804.090332,207.688782 3804.072510,213.071060 
	C3803.939209,253.569489 3804.000000,294.068542 3804.000000,334.567413 
	C3804.000000,380.732788 3804.011230,426.898193 3803.954834,473.063507 
	C3803.952881,474.705994 3803.835693,476.906281 3802.833496,477.895935 
	C3797.715820,482.950104 3792.263184,487.663666 3786.977539,492.550079 
	C3782.063721,497.092834 3776.952393,501.463745 3772.433838,506.375641 
	C3769.836182,509.199646 3765.309814,510.182648 3763.833740,512.482483 
	C3759.284424,519.570374 3751.555908,521.788452 3745.298340,525.600403 
	C3737.252930,530.501648 3727.678955,533.961670 3718.354980,535.405945 
	C3708.357666,536.954590 3697.845215,535.951111 3687.634277,535.119080 
	C3678.049072,534.338013 3670.085938,528.437561 3661.349609,524.943237 
	C3660.718994,524.691101 3660.247803,523.970093 3659.774902,523.406067 
	C3656.629150,519.655701 3653.474609,515.912109 3650.378662,512.120667 
	C3646.879639,507.836456 3643.231445,503.649017 3640.079590,499.119354 
	C3638.865479,497.374878 3638.792969,494.815430 3638.277344,492.609192 
	C3636.170166,483.588562 3633.224854,474.657257 3632.209717,465.513031 
	C3630.737549,452.247955 3630.488037,438.832977 3630.060303,425.470947 
	C3629.751221,415.814423 3630.000000,406.140076 3630.000000,396.473663 
	C3630.000000,333.975403 3630.000732,271.477142 3629.998535,208.978897 
	C3629.998535,204.039429 3625.213623,196.503708 3620.968262,195.520172 
	C3611.428467,193.310104 3602.015625,190.536453 3591.982666,190.909119 
	C3581.164551,191.310959 3570.319580,190.959885 3559.486816,191.010071 
	C3545.670898,191.074066 3531.817139,190.202911 3518.354492,194.868835 
	C3513.307373,196.617996 3509.740479,198.959106 3508.225098,204.273026 
	C3507.698730,206.118210 3506.070801,207.649261 3504.111816,210.565964 
	C3504.111816,290.675903 3504.111816,372.487274 3504.111816,454.406738 
	C3505.461914,454.847504 3506.743652,455.266022 3508.999756,456.002563 
	C3508.999756,468.776367 3509.020020,481.537079 3508.994141,494.297699 
	C3508.965576,508.330109 3510.744385,522.075439 3515.699707,535.272522 
	C3517.895020,541.118591 3521.518066,546.661560 3522.501221,552.668213 
	C3523.632568,559.576050 3527.563232,564.440735 3530.991943,569.876465 
	C3532.539062,572.329041 3533.347412,575.293152 3535.088379,577.568115 
	C3538.377930,581.866455 3541.888428,586.043945 3545.700928,589.880371 
	C3549.533447,593.736755 3553.870361,597.088379 3557.938477,600.714844 
	C3560.981201,603.427429 3563.778809,606.443787 3566.989990,608.932129 
	C3571.393555,612.344666 3577.758789,612.591980 3581.260498,617.658447 
	C3581.791016,618.426208 3583.230225,618.564087 3584.247559,618.997864 
	C3585.742676,619.635498 3587.233887,620.283081 3588.730957,620.916260 
	C3594.300049,623.271912 3599.732422,626.070129 3605.480225,627.850525 
	C3611.196533,629.621216 3617.196533,630.579956 3623.132568,631.512634 
	C3631.683105,632.856201 3640.271240,634.653748 3648.873291,634.835693 
	C3667.520752,635.230103 3686.267822,636.093994 3704.702148,631.974854 
	C3711.508301,630.453857 3718.317139,628.888489 3725.018311,626.971619 
	C3729.875732,625.582336 3734.601318,623.689392 3739.304443,621.817078 
	C3742.935791,620.371216 3746.510254,618.741943 3749.979980,616.942993 
	C3752.468750,615.652771 3754.621338,613.697083 3757.139160,612.485718 
	C3760.894531,610.678894 3764.863281,609.321106 3768.678711,607.630493 
	C3769.283203,607.362732 3769.503174,606.306213 3769.997559,605.692078 
	C3770.745361,604.762451 3771.420410,603.632751 3772.401611,603.057129 
	C3776.607910,600.589966 3781.040771,598.490723 3785.137939,595.862732 
	C3787.563477,594.306946 3789.481445,591.974426 3791.689941,590.062805 
	C3796.455078,585.937744 3801.281006,581.882874 3806.042969,577.754517 
	C3810.704102,573.713440 3815.316650,569.616638 3819.950439,565.544373 
	C3820.514160,565.900452 3821.077637,566.256592 3821.641357,566.612671 
	C3821.641357,583.671997 3821.641357,600.731384 3821.641357,616.734741 
	C3824.112305,618.275879 3826.086426,618.842407 3826.908203,620.138977 
	C3829.829590,624.749023 3834.863770,625.696045 3839.270264,626.764771 
	C3844.631592,628.065186 3850.401611,627.838806 3856.001709,627.958008 
	C3863.831055,628.124573 3871.666992,628.000000 3880.500000,628.000000 
M4250.500000,184.000015 
	C4232.070801,184.333557 4213.637695,184.537247 4195.214844,185.076202 
	C4189.343750,185.247940 4183.482910,186.904633 4177.646973,186.753555 
	C4173.836914,186.654922 4171.539551,189.125412 4168.489258,189.853027 
	C4160.435547,191.774124 4152.177734,192.822906 4144.069824,194.541504 
	C4137.772949,195.876328 4131.498047,197.438049 4125.361328,199.369171 
	C4118.221191,201.615906 4111.237793,204.364853 4104.194824,206.917145 
	C4101.445801,207.913330 4098.718262,208.970261 4095.978760,209.993637 
	C4088.128174,212.926849 4079.395264,214.157578 4073.827637,221.510818 
	C4073.586426,221.829514 4072.938965,221.883728 4072.464111,221.976074 
	C4065.398438,223.350449 4061.182861,229.138184 4057.944092,234.180679 
	C4054.637695,239.328461 4053.418945,246.488327 4053.225342,252.826508 
	C4052.804443,266.624146 4051.961670,280.485413 4055.820068,294.180176 
	C4057.835205,301.333344 4064.271240,307.611206 4071.762207,308.092255 
	C4081.450684,308.714478 4090.080566,305.282288 4098.750000,301.952393 
	C4101.631348,300.845612 4103.975098,298.380951 4106.829102,297.151794 
	C4111.123535,295.302521 4115.656250,294.007538 4120.074219,292.440063 
	C4120.666016,292.229980 4121.578125,291.892456 4121.670898,291.467102 
	C4122.429199,288.006104 4125.313477,288.460388 4127.724121,287.992798 
	C4129.149902,287.716217 4130.860352,287.768494 4131.927734,286.977448 
	C4138.043945,282.444519 4145.916016,283.503052 4152.687988,279.573303 
	C4159.736328,275.483032 4169.247070,275.538757 4177.728516,274.055389 
	C4181.761230,273.350128 4185.945312,273.529388 4189.988770,272.867767 
	C4196.730957,271.764709 4203.401855,269.281769 4210.125488,269.199371 
	C4227.727539,268.983765 4245.571289,267.033875 4262.714844,273.073914 
	C4269.575684,275.491058 4276.250488,278.487671 4282.874023,281.388062 
	C4291.924805,285.351959 4295.822754,293.304321 4301.451172,299.477448 
	C4305.584961,304.011139 4306.289062,312.492493 4306.793457,319.341888 
	C4307.815918,333.217987 4307.671875,347.180359 4307.993652,361.107513 
	C4308.038086,363.022003 4308.000000,364.938416 4308.000000,368.000000 
	C4286.339844,368.000000 4265.412598,367.769257 4244.495117,368.118958 
	C4236.645508,368.250244 4228.868164,367.182220 4220.823242,369.643066 
	C4213.301758,371.943939 4204.877930,371.223022 4196.871094,372.027924 
	C4187.422363,372.977814 4177.992676,374.116882 4168.560059,375.218994 
	C4165.318848,375.597717 4161.746582,375.375763 4158.928223,376.705566 
	C4151.045898,380.424255 4142.062012,378.809021 4134.032227,383.549774 
	C4127.697266,387.289978 4118.775879,385.803101 4111.707520,389.872833 
	C4107.252930,392.437805 4102.171875,393.889771 4097.558105,396.212067 
	C4093.578369,398.215637 4089.896729,400.803955 4086.018799,403.021332 
	C4082.793457,404.865601 4079.519775,406.640106 4076.178467,408.262085 
	C4074.310059,409.168915 4071.673828,409.147552 4070.394043,410.500244 
	C4064.730225,416.486938 4059.064941,422.549225 4054.189941,429.166138 
	C4052.326660,431.695465 4048.826660,430.982117 4047.445312,435.123718 
	C4045.753174,440.195831 4042.523193,445.218475 4039.583252,449.857483 
	C4037.612549,452.967194 4035.434570,456.209320 4034.462891,459.483063 
	C4031.784180,468.506439 4028.655273,477.777893 4028.368164,487.033936 
	C4028.002930,498.816040 4026.660889,510.688080 4029.553711,522.685059 
	C4031.076904,529.002258 4032.252930,535.892761 4032.640381,542.414429 
	C4033.226807,552.279236 4039.508301,559.257629 4042.592529,567.757263 
	C4043.446533,570.111145 4045.101074,572.218567 4046.603271,574.282715 
	C4048.619385,577.053467 4050.790039,579.718201 4052.994629,582.344177 
	C4055.390381,585.197998 4057.508545,588.491516 4060.445557,590.638672 
	C4065.868408,594.602966 4068.621338,601.402344 4075.328613,603.993835 
	C4077.419678,604.801819 4078.976562,606.941345 4080.851318,608.375488 
	C4082.196533,609.404358 4083.639648,610.312378 4085.080811,611.206848 
	C4088.222412,613.156372 4091.225098,615.442749 4094.583008,616.906799 
	C4101.273438,619.824036 4108.067871,622.576660 4115.001465,624.840088 
	C4121.461914,626.949097 4128.138672,628.415833 4134.759277,630.004211 
	C4137.917480,630.761841 4141.153320,631.226196 4144.374023,631.683411 
	C4152.460938,632.831421 4160.545898,634.706360 4168.655762,634.841553 
	C4189.136230,635.183044 4209.686523,636.017639 4229.996582,632.026672 
	C4234.636230,631.114929 4239.533691,631.186279 4244.002441,629.803284 
	C4251.924805,627.351074 4259.710449,624.371826 4267.354980,621.142578 
	C4271.972168,619.192261 4276.457031,616.922729 4280.645996,613.920349 
	C4286.200684,609.939514 4294.135254,609.802979 4298.312012,603.346313 
	C4298.448730,603.134705 4298.956543,603.199707 4299.212402,603.022400 
	C4304.478027,599.375366 4309.870117,595.892639 4314.945312,591.996643 
	C4319.296875,588.656250 4323.282715,584.839294 4328.000000,580.737793 
	C4328.000000,588.228577 4328.368652,594.875244 4327.892090,601.460693 
	C4327.448730,607.587402 4329.331055,613.105286 4330.958008,618.752441 
	C4331.257324,619.792175 4331.646973,621.270203 4332.423340,621.634949 
	C4338.762695,624.613037 4344.785156,628.214478 4352.309082,628.092712 
	C4370.137207,627.804199 4387.982910,628.338196 4405.797363,627.775696 
	C4410.594727,627.624268 4416.729980,629.315247 4420.223145,623.502625 
	C4420.458984,623.110352 4421.427734,623.140564 4422.062988,623.009460 
	C4429.477539,621.479065 4431.000000,619.609253 4431.000000,612.005676 
	C4431.000488,518.511353 4431.025391,425.017029 4430.926270,331.522858 
	C4430.921387,326.823730 4431.179199,322.248810 4429.390137,317.329620 
	C4427.216797,311.355286 4427.743652,304.414886 4426.978516,297.906891 
	C4426.387695,292.878754 4426.957031,287.051697 4424.541992,283.081482 
	C4421.976562,278.864075 4421.134277,274.635101 4419.882324,270.221558 
	C4418.598633,265.694916 4416.858887,261.272369 4414.985840,256.948212 
	C4414.008301,254.691559 4412.315918,252.744125 4410.945801,250.657547 
	C4408.686523,247.217621 4405.832520,244.009338 4404.372070,240.258316 
	C4403.372559,237.690475 4403.141113,235.562820 4399.791504,235.848221 
	C4399.568359,235.867233 4399.351562,234.752609 4398.969238,234.303223 
	C4396.052734,230.874527 4393.224121,227.356003 4390.092773,224.132660 
	C4388.721680,222.721130 4386.159180,222.321579 4385.081543,220.795853 
	C4380.661621,214.540161 4373.451660,212.241272 4367.530273,208.224258 
	C4363.396484,205.420090 4357.989746,204.549347 4353.268555,202.538574 
	C4348.027344,200.306000 4343.070312,197.323532 4337.711914,195.469101 
	C4332.060547,193.513184 4326.118164,192.319794 4320.233398,191.138260 
	C4315.462402,190.180313 4310.625488,190.701569 4306.150391,187.293533 
	C4303.710938,185.436234 4299.174316,186.205429 4295.571777,186.027435 
	C4280.883301,185.301758 4266.190918,184.667770 4250.500000,184.000015 
M1743.831787,349.338898 
	C1764.055298,331.656433 1788.388550,324.624481 1814.470581,323.095978 
	C1833.471191,321.982452 1852.174683,324.386566 1870.270142,330.967468 
	C1886.704956,336.944397 1900.413940,347.080719 1913.571045,358.135681 
	C1920.646118,364.080597 1927.434204,370.367035 1934.539917,376.666229 
	C1962.421875,352.511139 1991.575562,327.254425 2021.175659,301.610870 
	C2015.086304,294.473938 2009.799438,287.870697 2004.084351,281.661774 
	C1991.188721,267.652313 1976.165161,256.324005 1959.961792,246.325317 
	C1919.740112,221.505630 1876.109009,208.463043 1828.894531,208.194931 
	C1814.553223,208.113495 1800.190674,209.876419 1785.855347,211.014359 
	C1759.462769,213.109421 1734.763550,221.439774 1710.794434,232.117096 
	C1691.441284,240.738251 1674.399292,252.929718 1658.119141,266.431244 
	C1643.062134,278.918274 1629.245728,292.389648 1617.953491,308.434021 
	C1604.259033,327.891327 1594.679443,349.208527 1587.701538,371.885803 
	C1581.942261,390.603058 1578.473633,409.739807 1577.373413,429.169861 
	C1576.613525,442.590729 1577.262939,456.165192 1578.302368,469.592072 
	C1579.233154,481.616333 1580.579346,493.776886 1583.489746,505.441315 
	C1588.267578,524.590942 1594.913452,543.206787 1604.174561,560.776428 
	C1613.028931,577.574097 1623.287354,593.499634 1636.204712,607.369690 
	C1644.117676,615.866333 1653.309082,623.261108 1662.411011,630.544861 
	C1688.399902,651.341919 1717.465942,666.079041 1749.793701,674.456543 
	C1768.554199,679.318176 1787.590820,682.496643 1806.840210,683.618958 
	C1820.779419,684.431641 1834.860840,683.706909 1848.828613,682.848022 
	C1860.931885,682.103821 1873.037842,680.659668 1885.010376,678.711914 
	C1902.541870,675.859802 1919.585693,670.830750 1935.514893,662.963562 
	C1969.175659,646.339050 1997.422119,622.695312 2021.859741,594.378662 
	C2025.567017,590.083008 2028.867188,585.436218 2032.401489,580.892822 
	C2017.089600,569.471069 2002.524780,558.538574 1987.885864,547.706055 
	C1973.374390,536.967896 1958.755493,526.374573 1944.271606,515.599548 
	C1942.196167,514.055542 1940.754272,513.392578 1938.868286,515.709839 
	C1928.963013,527.880432 1917.773804,538.711243 1905.298950,548.267822 
	C1886.681641,562.530212 1865.334351,570.049377 1842.354858,571.752075 
	C1819.278442,573.462036 1796.463867,571.132019 1774.469849,562.504883 
	C1752.732788,553.978577 1735.053101,540.080688 1721.909668,521.457092 
	C1700.101196,490.555389 1696.333374,455.574036 1703.373291,419.128143 
	C1708.706665,391.516052 1722.469360,368.588470 1743.831787,349.338898 
M4554.000000,257.500000 
	C4554.000000,367.315216 4553.941895,477.130554 4554.106934,586.945496 
	C4554.120605,595.980164 4551.630859,605.467407 4557.371582,613.976807 
	C4558.654785,615.878784 4558.239746,619.863464 4559.699707,620.544250 
	C4565.408203,623.205566 4571.419922,625.660400 4577.576172,626.797424 
	C4584.173828,628.016052 4591.059082,627.880127 4597.822754,627.954956 
	C4611.485840,628.106140 4625.173340,627.510132 4638.809082,628.141113 
	C4651.815430,628.742920 4663.643555,624.616394 4675.666016,620.916870 
	C4676.289062,620.725159 4677.006836,619.978638 4677.185547,619.349731 
	C4678.206543,615.764221 4679.875488,612.137634 4679.882324,608.522400 
	C4680.035156,527.036194 4679.992188,445.549652 4680.042969,364.063232 
	C4680.044434,361.989471 4680.080078,359.505493 4681.148438,357.920319 
	C4684.193848,353.403320 4687.781738,349.251831 4691.163574,344.962250 
	C4691.254883,344.846100 4691.472656,344.831970 4691.570801,344.718109 
	C4694.734375,341.047852 4698.295898,337.636383 4700.930176,333.617859 
	C4703.372559,329.891693 4705.594238,326.642944 4709.213867,323.498962 
	C4716.918457,316.806915 4724.400391,309.791321 4732.367676,303.349365 
	C4734.840820,301.349701 4737.157715,298.874268 4739.993164,297.668427 
	C4744.729980,295.653900 4749.822266,294.471161 4754.774414,292.969879 
	C4756.320801,292.501099 4759.013184,292.485809 4759.273438,291.661285 
	C4760.561035,287.580597 4763.778320,288.811859 4766.115234,289.108063 
	C4774.145020,290.125732 4782.422852,286.593048 4790.400879,291.720245 
	C4794.035156,294.055695 4800.229492,292.256317 4804.092285,294.420898 
	C4809.878906,297.663574 4815.747559,297.800079 4821.813477,297.951843 
	C4826.527832,298.069794 4831.920898,296.852295 4833.646484,292.732941 
	C4836.173340,286.702179 4837.651855,279.837341 4837.813477,273.284302 
	C4838.320312,252.800232 4838.180176,232.292862 4837.854492,211.801346 
	C4837.786133,207.501053 4836.255859,203.078476 4834.698730,198.978348 
	C4831.664062,190.988220 4823.189941,189.563065 4816.813477,187.479095 
	C4807.985352,184.593933 4798.098633,184.463440 4788.632324,184.148224 
	C4778.729980,183.818466 4768.780273,184.519958 4758.868164,185.071640 
	C4754.834961,185.296143 4750.791504,186.092743 4746.859863,187.063141 
	C4744.869141,187.554459 4743.193848,189.199814 4741.242676,189.995987 
	C4736.580078,191.898407 4730.793945,192.512222 4727.436523,195.716003 
	C4724.389160,198.623535 4721.160156,200.876251 4717.733887,203.036087 
	C4713.459473,205.730606 4707.595703,207.243835 4705.037109,211.034851 
	C4700.013672,218.477951 4689.784668,221.134216 4687.574219,230.820953 
	C4687.484375,231.215393 4686.894043,231.526871 4686.492188,231.814133 
	C4684.086426,233.535858 4681.479004,235.034470 4679.325195,237.026016 
	C4678.064941,238.191360 4677.922852,240.736969 4676.588379,241.620819 
	C4670.851074,245.420090 4667.288574,250.886475 4663.943359,256.628906 
	C4663.518555,257.358002 4662.498047,257.739868 4661.000000,258.831970 
	C4661.000000,256.096893 4661.000000,254.450699 4661.000000,252.804520 
	C4661.000000,238.140289 4660.755859,223.470123 4661.110840,208.814499 
	C4661.269043,202.291199 4657.120605,197.574081 4653.000488,195.536301 
	C4646.817871,192.478668 4639.135254,191.024490 4632.167969,191.253326 
	C4611.890625,191.919312 4591.436523,188.149658 4571.286133,193.798553 
	C4566.702148,195.083710 4561.766602,195.554504 4559.182129,199.623993 
	C4556.741699,203.465668 4554.412598,208.125656 4554.229980,212.516861 
	C4553.622070,227.155823 4554.000000,241.835770 4554.000000,257.500000 
z"/>
<path fill="#22B14C" opacity="1.000000" stroke="none" 
	d="
M5302.531250,0.999930 
	C5304.174316,1.666468 5305.395508,2.974796 5306.515625,2.894075 
	C5313.120605,2.418255 5318.690430,5.180374 5324.268066,8.045755 
	C5324.709473,8.272345 5325.090332,8.640886 5325.548828,8.806946 
	C5331.977051,11.134165 5333.993652,13.823040 5333.994141,20.373722 
	C5334.001465,217.835190 5333.988281,415.296661 5334.064453,612.758118 
	C5334.066406,618.013916 5330.272461,620.540771 5327.063965,622.746155 
	C5319.274902,628.100464 5310.106934,628.262146 5300.912598,628.066284 
	C5288.420898,627.800171 5275.917969,628.098389 5263.421875,627.954224 
	C5257.991699,627.891602 5252.293945,628.252258 5247.213379,626.747131 
	C5241.648926,625.098694 5236.181152,622.115051 5231.646484,618.492004 
	C5229.783691,617.003662 5230.105957,612.327820 5230.063965,609.093567 
	C5229.903809,596.764648 5230.000000,584.432495 5230.000000,572.101562 
	C5230.000000,570.502197 5230.000000,568.902832 5230.000000,567.303406 
	C5229.625000,567.084534 5229.250000,566.865601 5228.875488,566.646667 
	C5226.253906,569.406311 5223.624023,572.158081 5221.021484,574.935242 
	C5220.701660,575.276855 5220.504395,576.127136 5220.287109,576.114502 
	C5214.104492,575.753967 5213.003906,582.942078 5207.706543,584.446350 
	C5204.555176,585.341309 5202.302246,589.091248 5199.391602,591.209045 
	C5193.864258,595.230347 5187.688477,598.482056 5182.648438,603.016907 
	C5177.195801,607.922363 5169.951660,609.376099 5164.500488,613.557739 
	C5158.498047,618.162170 5151.363770,619.295715 5145.268066,622.556946 
	C5139.893066,625.433044 5134.149414,626.786499 5128.774902,629.262634 
	C5124.774414,631.106018 5119.973633,631.379517 5115.477539,631.936096 
	C5110.583984,632.541870 5105.439453,631.924683 5100.738770,633.137024 
	C5084.954102,637.208008 5068.976562,634.782959 5053.153809,634.686340 
	C5041.852051,634.617432 5030.443848,632.196960 5019.319336,629.751526 
	C5011.911133,628.122803 5004.906738,624.632690 4997.743652,621.918213 
	C4993.530273,620.321533 4989.276855,618.787720 4985.202637,616.881653 
	C4983.110840,615.902954 4981.405273,614.121765 4979.464844,612.790222 
	C4977.449707,611.407043 4975.432129,610.001526 4973.294922,608.826233 
	C4963.591309,603.490845 4956.489746,594.952393 4947.867188,588.373596 
	C4941.410645,583.446838 4938.081543,576.264771 4932.301758,570.898193 
	C4928.327637,567.208435 4926.751465,560.958923 4924.018066,555.899902 
	C4922.769531,553.589478 4921.135742,551.478027 4919.990234,549.123596 
	C4917.550293,544.109741 4916.119141,538.378174 4912.805664,534.070557 
	C4908.071777,527.916077 4908.911621,520.693665 4906.915039,514.064941 
	C4906.455566,512.541138 4904.536621,511.456299 4904.080078,509.932587 
	C4902.217285,503.720062 4900.569824,497.438110 4899.019531,491.138489 
	C4897.502441,484.976044 4896.033691,478.792328 4894.857422,472.558746 
	C4893.979492,467.910278 4893.178711,463.176971 4893.073242,458.465057 
	C4892.577148,436.376770 4891.901855,414.277863 4892.156738,392.192719 
	C4892.317383,378.235535 4893.586914,364.247406 4895.205566,350.371948 
	C4895.873047,344.652252 4899.004395,339.257874 4900.552734,333.589172 
	C4901.491211,330.153442 4901.758789,326.486633 4901.937012,322.904175 
	C4902.141602,318.802704 4902.351074,315.017548 4906.466797,312.502045 
	C4907.410645,311.925690 4907.127930,309.461304 4907.560059,307.907410 
	C4908.983398,302.784943 4909.666016,297.528931 4912.924316,292.886444 
	C4915.302246,289.498169 4916.380371,285.176056 4917.910156,281.220917 
	C4919.157227,277.997925 4919.938477,274.897034 4923.286621,272.571747 
	C4925.466797,271.057739 4925.729492,267.004486 4927.324219,264.375244 
	C4929.961914,260.024841 4932.978516,255.903580 4935.841797,251.690338 
	C4937.445312,249.330658 4938.777344,246.706039 4940.726562,244.676239 
	C4946.490234,238.675049 4952.530762,232.941086 4958.399902,227.039642 
	C4961.027344,224.397369 4963.104492,220.950882 4966.169434,219.076233 
	C4968.907227,217.401566 4971.481934,215.652420 4974.106934,213.863297 
	C4981.651855,208.720856 4989.848145,204.413254 4998.134766,200.512741 
	C5007.949707,195.893188 5018.391113,192.930115 5028.753418,189.642990 
	C5044.655762,184.598618 5060.621094,183.895599 5076.819336,184.101410 
	C5091.009277,184.281723 5105.210449,185.051239 5119.355957,186.191956 
	C5122.986816,186.484756 5127.733398,185.361832 5130.337891,189.893753 
	C5130.731934,190.579987 5132.442871,190.496414 5133.537598,190.795212 
	C5139.925293,192.538345 5146.398926,194.033096 5152.651855,196.172623 
	C5154.926270,196.950684 5156.497559,199.573914 5158.687988,200.838638 
	C5168.864258,206.714432 5179.544434,211.816269 5189.259766,218.359619 
	C5196.772461,223.419113 5203.123535,230.202957 5211.000000,237.103943 
	C5211.000000,233.823959 5211.000000,231.913773 5211.000000,230.003586 
	C5211.000000,162.016861 5210.982910,94.030106 5211.047852,26.043436 
	C5211.051270,22.290848 5211.429199,18.473312 5212.200684,14.805572 
	C5212.926758,11.354372 5214.361816,8.506952 5219.120605,8.795651 
	C5221.455566,8.937339 5223.837402,6.667256 5226.337402,6.055751 
	C5231.380859,4.821858 5236.524414,3.998595 5241.611328,2.934096 
	C5242.114746,2.828779 5242.514160,2.226781 5242.980957,1.427699 
	C5262.687500,1.000000 5282.375000,1.000000 5302.531250,0.999930 
M5080.640137,536.001953 
	C5086.577148,537.001282 5092.503906,538.760498 5098.453125,538.839905 
	C5110.405273,538.999573 5122.596191,540.600464 5134.049316,535.120239 
	C5136.631836,533.884216 5139.724609,533.760132 5142.438477,532.740112 
	C5145.145996,531.722534 5147.705566,530.284973 5150.268066,528.915955 
	C5152.570801,527.685791 5154.872559,526.421021 5157.027344,524.954712 
	C5161.108887,522.177002 5165.521973,519.680786 5168.968750,516.238586 
	C5171.765625,513.445068 5173.752441,510.012299 5178.250977,509.857483 
	C5178.479980,509.849609 5178.749512,509.487915 5178.907715,509.233215 
	C5181.434570,505.171509 5186.115234,503.564392 5188.632324,498.764252 
	C5191.676758,492.957214 5197.956543,488.838287 5202.867188,484.019958 
	C5207.325684,479.645355 5211.395020,475.964233 5211.277344,468.222321 
	C5210.676270,428.916382 5211.000000,389.596344 5211.000000,350.281219 
	C5211.000000,346.629303 5211.000000,342.977386 5211.000000,339.969086 
	C5209.308594,338.602142 5207.988770,337.727081 5206.903320,336.621887 
	C5203.902832,333.566071 5201.071289,330.342621 5198.027832,327.332245 
	C5196.617676,325.937103 5194.600098,325.116058 5193.322266,323.634308 
	C5186.410156,315.617340 5178.458984,308.670441 5169.804199,302.768127 
	C5167.106934,300.928802 5165.438477,297.792938 5162.986816,296.868927 
	C5157.445312,294.780731 5153.235352,290.775818 5148.187988,288.250397 
	C5142.455078,285.381683 5135.992188,283.924896 5129.779785,282.078796 
	C5125.642578,280.849304 5121.329102,278.986694 5117.199707,279.225006 
	C5109.812500,279.651245 5101.776367,276.061737 5095.071777,281.990723 
	C5085.686035,280.185730 5078.173828,286.135925 5069.709473,288.144989 
	C5068.940430,288.327606 5067.999023,288.670288 5067.568848,289.255341 
	C5064.653320,293.224884 5061.098145,296.143005 5056.106934,297.084778 
	C5055.400879,297.217957 5054.667969,297.889740 5054.202637,298.505219 
	C5050.624023,303.237030 5047.047363,307.972961 5043.591797,312.794373 
	C5040.476562,317.139313 5036.681152,321.244904 5034.660156,326.073334 
	C5030.478027,336.062164 5027.232422,346.446228 5023.717773,356.707428 
	C5023.145508,358.377075 5023.247070,360.265839 5022.899414,362.026093 
	C5021.292969,370.160431 5019.215332,378.229889 5018.144531,386.432037 
	C5017.395996,392.164917 5018.260742,398.089539 5017.923828,403.900665 
	C5017.606934,409.372284 5017.828125,414.837128 5018.115234,420.252502 
	C5018.748535,432.215240 5020.002930,444.145142 5021.014648,456.087555 
	C5021.056152,456.572510 5021.044434,457.213318 5021.334961,457.502960 
	C5024.943848,461.099609 5023.143555,466.530518 5026.573730,470.822754 
	C5029.788086,474.845917 5029.557617,481.552002 5031.107910,487.002014 
	C5031.996094,490.124023 5032.758789,493.656067 5034.760254,495.990173 
	C5037.158203,498.786865 5039.029297,501.510010 5039.661621,505.099060 
	C5039.684570,505.231262 5039.870117,505.373505 5040.013184,505.440369 
	C5045.687988,508.093079 5045.058594,516.705139 5052.018066,518.138489 
	C5058.896484,527.786743 5070.106934,530.699036 5080.640137,536.001953 
z"/>
<path fill="#F8BD41" opacity="1.000000" stroke="none" 
	d="
M8.238351,96.999977 
	C8.344698,68.673111 8.501158,40.846237 8.493954,13.019403 
	C8.493045,9.508334 9.672470,8.512712 13.111395,8.511622 
	C92.601624,8.486444 172.093857,7.985819 251.581131,8.418880 
	C289.919952,8.627756 327.831238,13.212053 364.023193,27.029579 
	C394.236786,38.564678 422.164795,53.806511 443.903168,78.506424 
	C463.870972,101.194557 477.161377,127.297653 484.125763,156.762314 
	C488.656097,175.928864 490.443237,195.306442 489.942505,214.894730 
	C489.242249,242.288116 483.854645,268.628876 472.165039,293.653076 
	C455.546234,329.229340 429.453400,355.756714 395.453094,374.627014 
	C382.609589,381.755219 368.991028,387.486877 355.504913,393.961182 
	C405.928406,486.998444 456.621521,580.533264 507.785309,674.936462 
	C505.113586,674.936462 503.512299,674.936523 501.910980,674.936523 
	C458.747040,674.936523 415.582825,674.867493 372.419586,675.043335 
	C368.107697,675.060913 365.977844,673.570557 364.010284,669.894043 
	C337.378052,620.131470 310.606934,570.443237 283.838257,520.753784 
	C264.255280,484.402863 244.614212,448.083252 225.042770,411.726135 
	C223.804184,409.425201 222.733429,407.722107 219.539780,407.736389 
	C189.209015,407.872162 158.877396,407.821899 128.546036,407.839081 
	C127.904587,407.839447 127.263222,408.006042 126.036720,408.176331 
	C126.036720,496.942627 126.036720,585.658447 126.036720,674.654175 
	C86.667038,674.654175 47.899666,674.654175 8.238185,674.654175 
	C8.238185,482.276917 8.238185,289.888458 8.238351,96.999977 
M306.334991,130.078354 
	C289.000092,125.014656 271.132080,123.334335 253.247070,123.136581 
	C212.437592,122.685326 171.620102,122.955353 130.805878,122.945663 
	C129.353760,122.945320 127.901627,123.086151 126.256592,123.171150 
	C126.256592,179.869583 126.256592,236.239563 126.256592,292.866150 
	C127.661011,292.956238 128.789536,293.092529 129.917953,293.091766 
	C172.564484,293.063477 215.213531,293.284058 257.856476,292.873810 
	C279.407410,292.666504 300.604401,289.348450 320.628082,280.850464 
	C342.840637,271.423523 359.254272,256.189789 364.231445,231.832977 
	C366.397339,221.233917 365.594696,210.013138 365.980316,199.069092 
	C366.492645,184.526566 361.836884,171.529236 353.359680,159.924957 
	C341.811279,144.116531 325.261505,135.904678 306.334991,130.078354 
z"/>
<path fill="#22B14C" opacity="1.000000" stroke="none" 
	d="
M3129.885742,293.588684 
	C3131.877197,293.199707 3133.530518,293.012878 3135.183838,293.012543 
	C3204.683105,292.997955 3274.182617,292.959869 3343.681885,293.056824 
	C3351.346680,293.067505 3358.933594,294.453033 3365.834717,297.993591 
	C3372.041016,301.177582 3375.789795,306.546295 3379.144287,312.688171 
	C3381.811279,317.571075 3383.003662,322.312073 3383.003174,327.634552 
	C3382.998535,408.967133 3383.021729,490.299774 3382.932129,571.632263 
	C3382.927979,575.509338 3383.792480,579.284119 3379.543457,582.847961 
	C3375.859375,585.937805 3374.420410,591.705444 3371.990723,596.290344 
	C3371.707520,596.825012 3371.563965,597.678833 3371.137207,597.854431 
	C3366.523682,599.753784 3361.614014,601.089539 3357.283447,603.481384 
	C3351.484619,606.684143 3345.301514,608.424988 3338.987061,609.924133 
	C3332.826416,611.386719 3325.908203,611.424011 3320.666260,614.430054 
	C3316.484131,616.828064 3312.429199,617.521362 3308.153809,618.387512 
	C3300.025391,620.034241 3291.819336,621.309753 3283.719482,623.078369 
	C3280.231445,623.840027 3276.933350,625.462158 3273.535156,626.654114 
	C3272.928223,626.866943 3272.256592,626.913452 3271.609619,626.991638 
	C3263.163330,628.012817 3254.719238,629.051697 3246.268311,630.032104 
	C3240.249756,630.730225 3234.236084,631.582214 3228.194824,631.945007 
	C3219.112305,632.490173 3209.849365,631.709534 3200.943604,633.186096 
	C3177.106201,637.138184 3153.198486,634.362427 3129.345703,634.747070 
	C3118.321777,634.924744 3107.258789,632.345459 3096.203613,631.106506 
	C3091.793701,630.612305 3087.286133,630.734680 3082.947754,629.915771 
	C3075.926758,628.590515 3069.006836,626.726624 3062.047607,625.077515 
	C3056.359619,623.729614 3050.689453,622.304810 3044.987305,621.020508 
	C3038.652344,619.593567 3031.294434,619.839844 3026.178467,616.557556 
	C3018.832031,611.844482 3010.508789,610.894165 3002.996826,607.411743 
	C2998.429443,605.294556 2994.146973,602.568359 2989.602539,600.395935 
	C2986.083252,598.713684 2982.234619,597.709534 2978.748047,595.971741 
	C2972.369141,592.792419 2964.633545,590.608582 2960.268311,585.576660 
	C2955.416992,579.984741 2946.238037,580.999390 2943.597412,572.696594 
	C2942.908691,570.531921 2938.403320,569.748657 2935.958740,567.919373 
	C2934.152100,566.567627 2932.864502,564.530579 2931.305420,562.835754 
	C2930.750732,562.233032 2930.153320,561.413086 2929.446045,561.248352 
	C2924.319336,560.054260 2920.512695,557.479736 2918.548828,552.318115 
	C2918.163574,551.305847 2915.906006,551.147278 2915.107178,550.128540 
	C2909.029785,542.380249 2901.764404,535.708679 2895.735596,527.815430 
	C2892.011475,522.940063 2889.105957,518.183594 2886.668701,512.724365 
	C2885.843262,510.875397 2882.174561,510.407745 2881.060547,508.554382 
	C2877.814697,503.154205 2875.189453,497.379578 2872.360352,491.731964 
	C2872.006104,491.024689 2871.924316,489.538940 2871.657227,489.524841 
	C2866.343994,489.243683 2867.160400,484.360260 2866.520996,481.603180 
	C2865.052979,475.272736 2860.914062,470.459351 2858.506348,464.742157 
	C2857.060059,461.307159 2855.970215,457.691376 2855.046143,454.073608 
	C2853.239258,446.999725 2852.261230,439.639801 2849.692139,432.872009 
	C2848.674072,430.189819 2847.245361,427.748383 2846.680664,424.708130 
	C2845.495361,418.326965 2843.164062,412.150208 2842.100830,405.756897 
	C2840.413086,395.607605 2839.362549,385.351715 2838.087158,375.135345 
	C2837.922852,373.820374 2838.003418,372.472443 2838.003174,371.139740 
	C2837.998779,350.806580 2837.664551,330.465424 2838.149902,310.143860 
	C2838.371826,300.860474 2840.232422,291.618164 2841.306641,282.352203 
	C2841.740967,278.604736 2841.682129,274.756561 2842.524902,271.110687 
	C2843.659424,266.202209 2845.624512,261.491547 2846.914795,256.611755 
	C2848.766602,249.606766 2850.001465,242.425705 2852.102051,235.502533 
	C2854.747559,226.782349 2856.908936,217.622681 2861.356934,209.840164 
	C2864.570312,204.218063 2864.542725,196.763046 2868.451904,193.047134 
	C2872.675293,189.032974 2871.678955,182.497177 2877.123047,179.762451 
	C2878.471436,179.085129 2879.162354,176.542496 2879.600342,174.723587 
	C2880.578369,170.660217 2882.783936,167.763214 2886.401367,165.702774 
	C2887.225342,165.233353 2887.774414,163.856491 2887.985107,162.804214 
	C2889.190674,156.780701 2893.854004,153.209381 2897.550293,148.934967 
	C2899.423340,146.769531 2901.157471,144.483170 2902.927246,142.230133 
	C2906.019531,138.292511 2908.914307,134.183228 2912.214844,130.430191 
	C2916.316895,125.766350 2920.503662,121.121300 2925.104736,116.968269 
	C2929.540771,112.964493 2934.647217,109.713730 2939.274658,105.907799 
	C2942.073486,103.605850 2944.382080,100.710381 2947.165527,98.386726 
	C2949.932373,96.077332 2952.965820,94.071007 2955.976807,92.074478 
	C2960.049561,89.374100 2965.227539,88.937614 2968.607178,84.422760 
	C2970.614258,81.741745 2974.896484,80.751381 2978.175049,79.037651 
	C2982.334717,76.863297 2986.464355,74.621826 2990.697266,72.598129 
	C2996.886230,69.638985 3003.672119,67.600433 3009.246094,63.774441 
	C3014.886230,59.903130 3021.989746,60.631191 3027.496826,55.776295 
	C3031.213623,52.499561 3037.902832,52.738178 3043.124023,50.990829 
	C3051.303467,48.253391 3059.909912,47.198105 3067.899414,43.411537 
	C3072.541016,41.211834 3078.469482,41.760113 3083.807129,40.989746 
	C3091.067139,39.942009 3098.311523,38.785099 3105.571777,37.740387 
	C3108.002930,37.390568 3110.484619,37.372162 3112.903564,36.965027 
	C3115.597900,36.511475 3119.301270,38.849064 3120.672363,34.308208 
	C3120.752441,34.043251 3121.889160,34.022011 3122.535645,34.014183 
	C3151.131348,33.667694 3179.726807,33.280064 3208.323730,33.054630 
	C3213.250244,33.015793 3219.209473,32.064896 3222.863281,34.398296 
	C3227.941895,37.641872 3232.772461,36.473110 3237.737305,37.035404 
	C3243.758057,37.717274 3249.807617,38.183144 3255.802490,39.039593 
	C3264.192627,40.238251 3272.832275,40.809036 3280.816162,43.363979 
	C3286.770264,45.269466 3292.678711,46.810192 3298.763672,48.127872 
	C3305.575928,49.602886 3312.220703,51.908611 3318.870117,54.063229 
	C3324.896729,56.015976 3330.943359,57.984924 3336.776855,60.433632 
	C3343.302490,63.172729 3349.756104,66.174751 3355.939697,69.605721 
	C3360.256104,72.000732 3365.701416,73.115692 3367.944580,78.420303 
	C3375.813477,79.510445 3375.478760,87.426552 3379.331299,91.722313 
	C3384.622803,97.622208 3383.294434,104.418137 3383.708252,110.616066 
	C3384.638428,124.553833 3384.191162,138.600204 3383.907227,152.594330 
	C3383.791504,158.291672 3383.325439,164.173752 3381.695312,169.572006 
	C3380.806641,172.513519 3377.006348,174.498398 3374.770996,177.128693 
	C3371.567871,180.897964 3364.403564,181.287598 3360.823975,177.737671 
	C3360.418701,177.335800 3359.714844,177.221497 3359.136230,177.010406 
	C3353.637207,175.004639 3347.082520,174.251343 3342.889893,170.704636 
	C3337.101807,165.808289 3329.945312,164.551682 3323.852539,160.806976 
	C3320.771240,158.913239 3316.931152,158.278641 3313.477539,156.961090 
	C3307.821533,154.803116 3302.201416,152.551743 3296.564941,150.342255 
	C3296.266846,150.225342 3295.961670,150.124420 3295.656250,150.027664 
	C3288.283691,147.692093 3280.974609,145.123917 3273.518555,143.095825 
	C3267.257324,141.392654 3260.003418,141.745239 3254.645264,138.659210 
	C3244.644043,132.898743 3233.784424,135.238358 3223.511963,133.005219 
	C3200.074707,127.909943 3176.292480,130.250290 3152.667725,130.247635 
	C3142.493408,130.246490 3132.319580,132.958328 3122.143799,134.426605 
	C3119.395508,134.823166 3116.523926,134.804123 3113.910889,135.621185 
	C3104.350586,138.610229 3094.055664,140.468124 3085.589355,145.410263 
	C3076.429199,150.757568 3065.906250,153.126572 3057.437012,159.782425 
	C3050.175537,165.489182 3041.300781,169.479919 3035.066650,176.056259 
	C3029.598389,181.824905 3022.690918,186.174896 3018.630615,193.774048 
	C3014.680176,201.167816 3007.989990,207.077560 3002.672363,213.773651 
	C3001.144043,215.698288 3000.179199,218.076157 2998.998535,220.269226 
	C2997.295898,223.431717 2995.553711,226.576645 2993.970459,229.798950 
	C2991.582275,234.659912 2989.113281,239.497238 2987.050781,244.498199 
	C2984.498291,250.688278 2981.837891,256.904022 2980.105469,263.345764 
	C2977.573486,272.760681 2975.825928,282.386566 2973.977051,290.854767 
	C2972.729004,293.568298 2971.230225,295.406219 2971.103760,297.334259 
	C2970.314209,309.353882 2969.330811,321.395691 2969.379150,333.426239 
	C2969.434570,347.282104 2970.491455,361.133942 2971.130615,375.370361 
	C2972.259277,375.736603 2973.545410,376.153992 2974.298340,376.398315 
	C2975.564941,385.167999 2975.634521,393.965637 2978.323486,401.872467 
	C2980.885010,409.403931 2981.480225,417.677734 2986.478516,424.543243 
	C2988.945068,427.931000 2988.944092,433.025543 2991.090088,436.754730 
	C2995.656006,444.687836 2999.118408,453.227600 3005.395752,460.261566 
	C3010.856689,466.380981 3014.478027,474.253479 3020.340088,479.857483 
	C3023.369629,482.753571 3024.870117,488.445892 3030.606934,488.285858 
	C3030.849854,488.279053 3031.218750,488.637238 3031.335938,488.908844 
	C3034.259521,495.668488 3042.159912,496.808685 3046.179199,501.528717 
	C3051.123291,507.334564 3058.346680,507.775696 3063.428467,512.103333 
	C3069.822266,517.548218 3077.922119,519.267029 3085.166260,522.583496 
	C3093.597656,526.443542 3103.382080,527.219055 3112.331543,530.101929 
	C3138.629395,538.573303 3165.704834,535.573303 3192.530029,535.826416 
	C3199.794189,535.894958 3207.454102,534.945862 3214.247803,532.534912 
	C3221.164062,530.080505 3228.110107,529.088501 3235.160645,527.799866 
	C3237.759033,527.324951 3239.798828,524.339661 3242.386230,523.122437 
	C3245.715088,521.556335 3249.338867,520.617249 3252.786377,519.425049 
	C3252.786377,474.360596 3252.786377,429.416931 3252.786377,384.000000 
	C3250.795898,384.000000 3249.010742,384.000000 3247.225586,384.000000 
	C3208.892578,384.000000 3170.559814,383.978485 3132.226807,384.027771 
	C3127.553955,384.033813 3124.662109,381.389374 3121.918457,378.135956 
	C3120.850098,376.869232 3119.288086,376.033142 3118.050781,374.892426 
	C3113.141113,370.366028 3113.424805,364.004730 3113.175781,358.313202 
	C3112.615479,345.504517 3112.925537,332.653748 3113.048096,319.821686 
	C3113.082275,316.224915 3113.303955,312.533081 3114.189453,309.076904 
	C3114.735352,306.945312 3116.388428,304.825226 3118.091553,303.318207 
	C3121.791748,300.044281 3123.718262,294.554413 3129.885742,293.588684 
z"/>
<path fill="#F8BD41" opacity="1.000000" stroke="none" 
	d="
M2441.208496,229.812134 
	C2461.031250,241.805389 2478.962891,255.694122 2495.482666,271.370300 
	C2506.089111,281.434906 2513.408936,293.976654 2520.064453,306.775299 
	C2528.691895,323.366669 2536.777344,340.332581 2540.163574,358.899597 
	C2542.407227,371.202301 2544.261230,383.687317 2544.866943,396.159790 
	C2549.231445,486.038940 2545.849609,575.987671 2546.892090,665.900452 
	C2546.913086,667.699951 2546.894775,669.499817 2546.894775,671.632568 
	C2505.579590,671.632568 2464.698242,671.632568 2423.238281,671.632568 
	C2423.238281,669.321289 2423.239014,667.201843 2423.238281,665.082397 
	C2423.213623,584.083069 2423.481445,503.081665 2422.902832,422.086334 
	C2422.794678,406.964874 2421.516113,391.142059 2416.877686,376.914337 
	C2407.961426,349.564880 2388.935547,330.556732 2360.833740,321.969086 
	C2345.912109,317.409149 2330.715820,315.778137 2314.995117,317.810486 
	C2302.008057,319.489380 2288.896729,320.905182 2277.128906,326.579071 
	C2264.243408,332.791901 2251.649414,339.920258 2239.870117,348.019104 
	C2230.391602,354.536041 2222.203613,362.972961 2213.731689,370.867706 
	C2212.361816,372.144135 2212.008301,375.034576 2212.006348,377.179749 
	C2211.923828,462.179108 2211.936279,547.178528 2211.936279,632.177917 
	C2211.936279,646.162415 2211.936279,660.146912 2211.936279,674.532898 
	C2170.756836,674.532898 2129.873291,674.532898 2088.759766,674.532898 
	C2088.759766,452.625275 2088.759766,230.735031 2088.759766,8.545427 
	C2129.950928,8.545427 2170.682617,8.545427 2211.762207,8.545427 
	C2211.762207,87.299728 2211.762207,165.748535 2211.762207,244.960754 
	C2245.845215,220.870453 2282.124512,204.750687 2323.916260,202.903152 
	C2365.466553,201.066330 2405.010498,207.115997 2441.208496,229.812134 
z"/>
<path fill="#F8BD41" opacity="1.000000" stroke="none" 
	d="
M1393.011841,214.134613 
	C1431.662720,214.134613 1470.313599,214.134613 1509.397949,214.134613 
	C1509.397949,367.589233 1509.397949,520.938965 1509.397949,674.612915 
	C1470.451782,674.612915 1431.565796,674.612915 1392.059570,674.612915 
	C1392.059570,662.397949 1392.059570,650.365112 1392.059570,637.350403 
	C1386.518066,641.832458 1381.875366,645.683289 1377.132080,649.406189 
	C1362.145142,661.169067 1345.064331,668.481445 1326.673096,672.962952 
	C1314.616333,675.900879 1302.673706,679.581299 1290.455688,681.501770 
	C1279.482422,683.226562 1268.208740,683.171326 1257.055786,683.566223 
	C1251.687622,683.756287 1246.290894,683.204163 1240.909546,682.936157 
	C1226.166382,682.202026 1211.798340,679.481079 1197.547241,675.593567 
	C1172.917480,668.874695 1150.905518,656.774963 1130.019165,642.679199 
	C1118.415405,634.848206 1107.116821,626.117065 1097.291138,616.196594 
	C1079.352417,598.084961 1065.175049,577.021667 1054.116699,553.963806 
	C1045.714844,536.445068 1037.762207,518.714050 1034.805298,499.330597 
	C1033.075806,487.993500 1032.262695,476.514313 1031.125732,465.090210 
	C1030.635376,460.163208 1030.024170,455.211731 1030.055908,450.275177 
	C1030.257324,419.047974 1034.203491,388.349976 1045.225952,358.983093 
	C1054.112305,335.307587 1065.720947,312.978516 1082.231567,293.573975 
	C1089.509033,285.021057 1096.836060,276.411652 1104.970825,268.704193 
	C1137.336182,238.038681 1174.773438,216.950027 1219.564819,211.136627 
	C1234.656372,209.177902 1249.998901,208.034470 1265.200684,208.260925 
	C1306.606567,208.877701 1344.569092,220.981613 1378.565186,244.919662 
	C1382.749756,247.866196 1386.875366,250.896393 1392.124512,254.677444 
	C1392.124512,241.255722 1392.124512,228.597626 1392.346191,215.367279 
	C1392.769775,214.611237 1392.917847,214.391098 1393.011841,214.134613 
M1348.481323,547.998840 
	C1359.518188,540.371216 1369.538208,531.621704 1377.183228,520.520447 
	C1378.921509,517.996399 1380.118530,514.519836 1380.132202,511.475220 
	C1380.321533,469.499298 1380.253784,427.522278 1380.275024,385.545502 
	C1380.276367,382.885529 1379.654663,379.776520 1380.787842,377.661102 
	C1383.010864,373.511108 1380.610596,371.238983 1378.423340,368.711700 
	C1345.578125,330.757599 1303.479492,315.964600 1254.337524,320.387756 
	C1223.870117,323.130066 1198.978882,338.358612 1180.412842,361.670532 
	C1154.685913,393.973572 1142.567261,431.050995 1150.155151,472.907990 
	C1154.687988,497.912140 1164.886963,519.520447 1183.824341,537.568298 
	C1212.506470,564.902954 1245.995605,575.449219 1284.667480,570.984924 
	C1307.394287,568.361328 1328.913696,561.800232 1348.481323,547.998840 
z"/>
<path fill="#F8BD41" opacity="1.000000" stroke="none" 
	d="
M820.079590,569.139282 
	C845.349487,559.187988 866.356262,543.360474 886.759766,525.206055 
	C909.226868,550.541870 931.529846,575.692627 954.532959,601.632874 
	C947.972229,608.222778 941.702393,615.046875 934.881042,621.266052 
	C919.246033,635.520691 901.978760,647.535034 882.943909,656.815857 
	C860.873596,667.576660 837.990723,675.909851 813.611206,679.987244 
	C795.171448,683.071228 776.687744,684.068176 758.062439,683.304993 
	C748.568359,682.915894 738.974182,683.159119 729.611816,681.815857 
	C717.339478,680.055054 705.107117,677.556580 693.117004,674.392212 
	C673.923645,669.326782 655.796692,661.373169 638.322205,651.972595 
	C623.856873,644.190857 610.521912,634.780151 598.867249,623.201172 
	C574.616150,599.107544 555.304626,571.515564 542.579956,539.730774 
	C536.224182,523.854736 532.019348,507.268158 529.019653,490.296356 
	C524.589539,465.231262 524.625244,439.974915 526.468750,414.959259 
	C527.873047,395.902924 532.666504,376.939667 537.478027,358.329498 
	C543.969543,333.221191 556.122437,310.429535 571.227600,289.511902 
	C580.167664,277.131714 590.103394,265.156647 601.200623,254.708542 
	C631.341980,226.330322 667.944641,210.461639 708.355530,203.060287 
	C733.180786,198.513458 758.041687,198.208893 783.152283,201.789032 
	C820.354675,207.093155 853.617065,221.158478 882.295410,245.186920 
	C912.430786,270.436005 935.103821,301.170868 948.125000,338.768341 
	C954.625732,357.538849 961.133850,376.276001 963.610657,396.012024 
	C966.381714,418.093018 967.810974,440.285065 964.085022,462.479401 
	C963.582458,465.472870 962.229553,466.381561 959.436340,466.271667 
	C955.941833,466.134247 952.437866,466.239716 948.937988,466.239716 
	C849.274475,466.239777 749.610962,466.239807 649.947449,466.239807 
	C647.810669,466.239807 645.673828,466.239777 643.506592,466.239777 
	C648.585144,535.937134 727.313721,603.407104 820.079590,569.139282 
M655.634460,381.144867 
	C716.731873,381.144867 777.829224,381.144867 839.401428,381.144867 
	C838.934875,377.583984 838.982422,374.671417 838.140564,372.043823 
	C831.865051,352.458893 820.782837,335.630554 805.708557,322.040558 
	C799.328857,316.289032 789.938477,313.910248 781.984680,309.864532 
	C765.898682,301.682434 748.772522,300.294556 731.452148,303.378204 
	C703.086243,308.428314 679.652466,321.838867 663.331848,346.332611 
	C656.340454,356.825226 650.832275,367.863068 648.999207,381.145050 
	C651.099731,381.145050 652.890320,381.145050 655.634460,381.144867 
z"/>
<path fill="#22B14C" opacity="1.000000" stroke="none" 
	d="
M3880.000000,628.000000 
	C3871.666992,628.000000 3863.831055,628.124573 3856.001709,627.958008 
	C3850.401611,627.838806 3844.631592,628.065186 3839.270264,626.764771 
	C3834.863770,625.696045 3829.829590,624.749023 3826.908203,620.138977 
	C3826.086426,618.842407 3824.112305,618.275879 3821.641357,616.734741 
	C3821.641357,600.731384 3821.641357,583.671997 3821.641357,566.612671 
	C3821.077637,566.256592 3820.514160,565.900452 3819.950439,565.544373 
	C3815.316650,569.616638 3810.704102,573.713440 3806.042969,577.754517 
	C3801.281006,581.882874 3796.455078,585.937744 3791.689941,590.062805 
	C3789.481445,591.974426 3787.563477,594.306946 3785.137939,595.862732 
	C3781.040771,598.490723 3776.607910,600.589966 3772.401611,603.057129 
	C3771.420410,603.632751 3770.745361,604.762451 3769.997559,605.692078 
	C3769.503174,606.306213 3769.283203,607.362732 3768.678711,607.630493 
	C3764.863281,609.321106 3760.894531,610.678894 3757.139160,612.485718 
	C3754.621338,613.697083 3752.468750,615.652771 3749.979980,616.942993 
	C3746.510254,618.741943 3742.935791,620.371216 3739.304443,621.817078 
	C3734.601318,623.689392 3729.875732,625.582336 3725.018311,626.971619 
	C3718.317139,628.888489 3711.508301,630.453857 3704.702148,631.974854 
	C3686.267822,636.093994 3667.520752,635.230103 3648.873291,634.835693 
	C3640.271240,634.653748 3631.683105,632.856201 3623.132568,631.512634 
	C3617.196533,630.579956 3611.196533,629.621216 3605.480225,627.850525 
	C3599.732422,626.070129 3594.300049,623.271912 3588.730957,620.916260 
	C3587.233887,620.283081 3585.742676,619.635498 3584.247559,618.997864 
	C3583.230225,618.564087 3581.791016,618.426208 3581.260498,617.658447 
	C3577.758789,612.591980 3571.393555,612.344666 3566.989990,608.932129 
	C3563.778809,606.443787 3560.981201,603.427429 3557.938477,600.714844 
	C3553.870361,597.088379 3549.533447,593.736755 3545.700928,589.880371 
	C3541.888428,586.043945 3538.377930,581.866455 3535.088379,577.568115 
	C3533.347412,575.293152 3532.539062,572.329041 3530.991943,569.876465 
	C3527.563232,564.440735 3523.632568,559.576050 3522.501221,552.668213 
	C3521.518066,546.661560 3517.895020,541.118591 3515.699707,535.272522 
	C3510.744385,522.075439 3508.965576,508.330109 3508.994141,494.297699 
	C3509.020020,481.537079 3508.999756,468.776367 3508.999756,456.002563 
	C3506.743652,455.266022 3505.461914,454.847504 3504.111816,454.406738 
	C3504.111816,372.487274 3504.111816,290.675903 3504.111816,210.565964 
	C3506.070801,207.649261 3507.698730,206.118210 3508.225098,204.273026 
	C3509.740479,198.959106 3513.307373,196.617996 3518.354492,194.868835 
	C3531.817139,190.202911 3545.670898,191.074066 3559.486816,191.010071 
	C3570.319580,190.959885 3581.164551,191.310959 3591.982666,190.909119 
	C3602.015625,190.536453 3611.428467,193.310104 3620.968262,195.520172 
	C3625.213623,196.503708 3629.998535,204.039429 3629.998535,208.978897 
	C3630.000732,271.477142 3630.000000,333.975403 3630.000000,396.473663 
	C3630.000000,406.140076 3629.751221,415.814423 3630.060303,425.470947 
	C3630.488037,438.832977 3630.737549,452.247955 3632.209717,465.513031 
	C3633.224854,474.657257 3636.170166,483.588562 3638.277344,492.609192 
	C3638.792969,494.815430 3638.865479,497.374878 3640.079590,499.119354 
	C3643.231445,503.649017 3646.879639,507.836456 3650.378662,512.120667 
	C3653.474609,515.912109 3656.629150,519.655701 3659.774902,523.406067 
	C3660.247803,523.970093 3660.718994,524.691101 3661.349609,524.943237 
	C3670.085938,528.437561 3678.049072,534.338013 3687.634277,535.119080 
	C3697.845215,535.951111 3708.357666,536.954590 3718.354980,535.405945 
	C3727.678955,533.961670 3737.252930,530.501648 3745.298340,525.600403 
	C3751.555908,521.788452 3759.284424,519.570374 3763.833740,512.482483 
	C3765.309814,510.182648 3769.836182,509.199646 3772.433838,506.375641 
	C3776.952393,501.463745 3782.063721,497.092834 3786.977539,492.550079 
	C3792.263184,487.663666 3797.715820,482.950104 3802.833496,477.895935 
	C3803.835693,476.906281 3803.952881,474.705994 3803.954834,473.063507 
	C3804.011230,426.898193 3804.000000,380.732788 3804.000000,334.567413 
	C3804.000000,294.068542 3803.939209,253.569489 3804.072510,213.071060 
	C3804.090332,207.688782 3804.715088,202.322937 3808.875488,197.948425 
	C3812.213867,194.438141 3816.626465,195.066055 3820.548340,194.094635 
	C3844.417480,188.182465 3868.746338,191.926117 3892.862549,191.102463 
	C3902.032227,190.789276 3910.956055,193.312408 3919.612061,196.196457 
	C3921.418701,196.798538 3922.533691,199.495209 3923.952637,201.238571 
	C3924.952637,202.467560 3925.927734,203.716736 3927.819824,206.096359 
	C3927.819824,341.710114 3927.819824,479.004913 3927.819824,615.341797 
	C3925.859863,617.260315 3924.573486,618.882385 3922.949707,620.025513 
	C3920.359131,621.849548 3917.721924,623.845337 3914.792480,624.908508 
	C3903.676270,628.943054 3892.024170,627.944031 3880.000000,628.000000 
z"/>
<path fill="#22B14C" opacity="1.000000" stroke="none" 
	d="
M4251.000000,184.000000 
	C4266.190918,184.667770 4280.883301,185.301758 4295.571777,186.027435 
	C4299.174316,186.205429 4303.710938,185.436234 4306.150391,187.293533 
	C4310.625488,190.701569 4315.462402,190.180313 4320.233398,191.138260 
	C4326.118164,192.319794 4332.060547,193.513184 4337.711914,195.469101 
	C4343.070312,197.323532 4348.027344,200.306000 4353.268555,202.538574 
	C4357.989746,204.549347 4363.396484,205.420090 4367.530273,208.224258 
	C4373.451660,212.241272 4380.661621,214.540161 4385.081543,220.795853 
	C4386.159180,222.321579 4388.721680,222.721130 4390.092773,224.132660 
	C4393.224121,227.356003 4396.052734,230.874527 4398.969238,234.303223 
	C4399.351562,234.752609 4399.568359,235.867233 4399.791504,235.848221 
	C4403.141113,235.562820 4403.372559,237.690475 4404.372070,240.258316 
	C4405.832520,244.009338 4408.686523,247.217621 4410.945801,250.657547 
	C4412.315918,252.744125 4414.008301,254.691559 4414.985840,256.948212 
	C4416.858887,261.272369 4418.598633,265.694916 4419.882324,270.221558 
	C4421.134277,274.635101 4421.976562,278.864075 4424.541992,283.081482 
	C4426.957031,287.051697 4426.387695,292.878754 4426.978516,297.906891 
	C4427.743652,304.414886 4427.216797,311.355286 4429.390137,317.329620 
	C4431.179199,322.248810 4430.921387,326.823730 4430.926270,331.522858 
	C4431.025391,425.017029 4431.000488,518.511353 4431.000000,612.005676 
	C4431.000000,619.609253 4429.477539,621.479065 4422.062988,623.009460 
	C4421.427734,623.140564 4420.458984,623.110352 4420.223145,623.502625 
	C4416.729980,629.315247 4410.594727,627.624268 4405.797363,627.775696 
	C4387.982910,628.338196 4370.137207,627.804199 4352.309082,628.092712 
	C4344.785156,628.214478 4338.762695,624.613037 4332.423340,621.634949 
	C4331.646973,621.270203 4331.257324,619.792175 4330.958008,618.752441 
	C4329.331055,613.105286 4327.448730,607.587402 4327.892090,601.460693 
	C4328.368652,594.875244 4328.000000,588.228577 4328.000000,580.737793 
	C4323.282715,584.839294 4319.296875,588.656250 4314.945312,591.996643 
	C4309.870117,595.892639 4304.478027,599.375366 4299.212402,603.022400 
	C4298.956543,603.199707 4298.448730,603.134705 4298.312012,603.346313 
	C4294.135254,609.802979 4286.200684,609.939514 4280.645996,613.920349 
	C4276.457031,616.922729 4271.972168,619.192261 4267.354980,621.142578 
	C4259.710449,624.371826 4251.924805,627.351074 4244.002441,629.803284 
	C4239.533691,631.186279 4234.636230,631.114929 4229.996582,632.026672 
	C4209.686523,636.017639 4189.136230,635.183044 4168.655762,634.841553 
	C4160.545898,634.706360 4152.460938,632.831421 4144.374023,631.683411 
	C4141.153320,631.226196 4137.917480,630.761841 4134.759277,630.004211 
	C4128.138672,628.415833 4121.461914,626.949097 4115.001465,624.840088 
	C4108.067871,622.576660 4101.273438,619.824036 4094.583008,616.906799 
	C4091.225098,615.442749 4088.222412,613.156372 4085.080811,611.206848 
	C4083.639648,610.312378 4082.196533,609.404358 4080.851318,608.375488 
	C4078.976562,606.941345 4077.419678,604.801819 4075.328613,603.993835 
	C4068.621338,601.402344 4065.868408,594.602966 4060.445557,590.638672 
	C4057.508545,588.491516 4055.390381,585.197998 4052.994629,582.344177 
	C4050.790039,579.718201 4048.619385,577.053467 4046.603271,574.282715 
	C4045.101074,572.218567 4043.446533,570.111145 4042.592529,567.757263 
	C4039.508301,559.257629 4033.226807,552.279236 4032.640381,542.414429 
	C4032.252930,535.892761 4031.076904,529.002258 4029.553711,522.685059 
	C4026.660889,510.688080 4028.002930,498.816040 4028.368164,487.033936 
	C4028.655273,477.777893 4031.784180,468.506439 4034.462891,459.483063 
	C4035.434570,456.209320 4037.612549,452.967194 4039.583252,449.857483 
	C4042.523193,445.218475 4045.753174,440.195831 4047.445312,435.123718 
	C4048.826660,430.982117 4052.326660,431.695465 4054.189941,429.166138 
	C4059.064941,422.549225 4064.730225,416.486938 4070.394043,410.500244 
	C4071.673828,409.147552 4074.310059,409.168915 4076.178467,408.262085 
	C4079.519775,406.640106 4082.793457,404.865601 4086.018799,403.021332 
	C4089.896729,400.803955 4093.578369,398.215637 4097.558105,396.212067 
	C4102.171875,393.889771 4107.252930,392.437805 4111.707520,389.872833 
	C4118.775879,385.803101 4127.697266,387.289978 4134.032227,383.549774 
	C4142.062012,378.809021 4151.045898,380.424255 4158.928223,376.705566 
	C4161.746582,375.375763 4165.318848,375.597717 4168.560059,375.218994 
	C4177.992676,374.116882 4187.422363,372.977814 4196.871094,372.027924 
	C4204.877930,371.223022 4213.301758,371.943939 4220.823242,369.643066 
	C4228.868164,367.182220 4236.645508,368.250244 4244.495117,368.118958 
	C4265.412598,367.769257 4286.339844,368.000000 4308.000000,368.000000 
	C4308.000000,364.938416 4308.038086,363.022003 4307.993652,361.107513 
	C4307.671875,347.180359 4307.815918,333.217987 4306.793457,319.341888 
	C4306.289062,312.492493 4305.584961,304.011139 4301.451172,299.477448 
	C4295.822754,293.304321 4291.924805,285.351959 4282.874023,281.388062 
	C4276.250488,278.487671 4269.575684,275.491058 4262.714844,273.073914 
	C4245.571289,267.033875 4227.727539,268.983765 4210.125488,269.199371 
	C4203.401855,269.281769 4196.730957,271.764709 4189.988770,272.867767 
	C4185.945312,273.529388 4181.761230,273.350128 4177.728516,274.055389 
	C4169.247070,275.538757 4159.736328,275.483032 4152.687988,279.573303 
	C4145.916016,283.503052 4138.043945,282.444519 4131.927734,286.977448 
	C4130.860352,287.768494 4129.149902,287.716217 4127.724121,287.992798 
	C4125.313477,288.460388 4122.429199,288.006104 4121.670898,291.467102 
	C4121.578125,291.892456 4120.666016,292.229980 4120.074219,292.440063 
	C4115.656250,294.007538 4111.123535,295.302521 4106.829102,297.151794 
	C4103.975098,298.380951 4101.631348,300.845612 4098.750000,301.952393 
	C4090.080566,305.282288 4081.450684,308.714478 4071.762207,308.092255 
	C4064.271240,307.611206 4057.835205,301.333344 4055.820068,294.180176 
	C4051.961670,280.485413 4052.804443,266.624146 4053.225342,252.826508 
	C4053.418945,246.488327 4054.637695,239.328461 4057.944092,234.180679 
	C4061.182861,229.138184 4065.398438,223.350449 4072.464111,221.976074 
	C4072.938965,221.883728 4073.586426,221.829514 4073.827637,221.510818 
	C4079.395264,214.157578 4088.128174,212.926849 4095.978760,209.993637 
	C4098.718262,208.970261 4101.445801,207.913330 4104.194824,206.917145 
	C4111.237793,204.364853 4118.221191,201.615906 4125.361328,199.369171 
	C4131.498047,197.438049 4137.772949,195.876328 4144.069824,194.541504 
	C4152.177734,192.822906 4160.435547,191.774124 4168.489258,189.853027 
	C4171.539551,189.125412 4173.836914,186.654922 4177.646973,186.753555 
	C4183.482910,186.904633 4189.343750,185.247940 4195.214844,185.076202 
	C4213.637695,184.537247 4232.070801,184.333557 4251.000000,184.000000 
M4156.992188,472.425995 
	C4154.993164,476.994232 4152.515625,481.423248 4151.133301,486.171082 
	C4149.824707,490.663757 4149.127441,495.491821 4149.134277,500.170929 
	C4149.143066,506.196777 4147.395020,512.545471 4151.037109,518.189209 
	C4151.796387,519.365906 4153.661133,520.159668 4153.851562,521.321289 
	C4155.523438,531.494324 4160.820801,538.734009 4170.307129,542.921814 
	C4171.060547,543.254272 4171.420898,544.463135 4171.981445,545.252258 
	C4172.393066,545.831970 4172.726074,546.734558 4173.277344,546.907410 
	C4179.590332,548.887085 4185.842285,551.310425 4192.315430,552.431641 
	C4195.889160,553.050537 4198.814453,555.715332 4201.824707,555.759094 
	C4214.892090,555.949219 4228.169922,557.693176 4240.869629,552.646240 
	C4242.795410,551.880859 4245.361816,552.399597 4247.019531,551.353943 
	C4251.360352,548.615723 4256.505371,548.309875 4260.936035,544.710815 
	C4265.132324,541.301697 4271.091797,539.574036 4275.368652,535.384766 
	C4277.597656,533.201294 4280.448730,530.641357 4283.273926,530.286987 
	C4289.194336,529.544495 4291.479492,524.818115 4295.119629,521.546082 
	C4296.743652,520.086670 4298.025391,517.991089 4299.897461,517.117920 
	C4303.364746,515.500793 4307.992676,509.739197 4307.994629,505.952911 
	C4308.005371,484.622253 4308.005859,463.291595 4307.986328,441.960907 
	C4307.985352,440.697754 4307.776855,439.434784 4307.650391,438.000244 
	C4306.318848,438.000244 4305.331543,437.964691 4304.347168,438.005615 
	C4287.995117,438.685089 4271.680664,437.916962 4255.244141,439.545013 
	C4237.859375,441.266907 4220.167480,439.827209 4203.099609,445.012390 
	C4200.006348,445.952148 4196.447754,445.858582 4193.704590,447.347961 
	C4188.518555,450.163788 4182.833008,451.598083 4177.607422,454.648621 
	C4169.653809,459.292053 4162.742676,464.574371 4156.992188,472.425995 
z"/>
<path fill="#F8BD41" opacity="1.000000" stroke="none" 
	d="
M1743.572266,349.583374 
	C1722.469360,368.588470 1708.706665,391.516052 1703.373291,419.128143 
	C1696.333374,455.574036 1700.101196,490.555389 1721.909668,521.457092 
	C1735.053101,540.080688 1752.732788,553.978577 1774.469849,562.504883 
	C1796.463867,571.132019 1819.278442,573.462036 1842.354858,571.752075 
	C1865.334351,570.049377 1886.681641,562.530212 1905.298950,548.267822 
	C1917.773804,538.711243 1928.963013,527.880432 1938.868286,515.709839 
	C1940.754272,513.392578 1942.196167,514.055542 1944.271606,515.599548 
	C1958.755493,526.374573 1973.374390,536.967896 1987.885864,547.706055 
	C2002.524780,558.538574 2017.089600,569.471069 2032.401489,580.892822 
	C2028.867188,585.436218 2025.567017,590.083008 2021.859741,594.378662 
	C1997.422119,622.695312 1969.175659,646.339050 1935.514893,662.963562 
	C1919.585693,670.830750 1902.541870,675.859802 1885.010376,678.711914 
	C1873.037842,680.659668 1860.931885,682.103821 1848.828613,682.848022 
	C1834.860840,683.706909 1820.779419,684.431641 1806.840210,683.618958 
	C1787.590820,682.496643 1768.554199,679.318176 1749.793701,674.456543 
	C1717.465942,666.079041 1688.399902,651.341919 1662.411011,630.544861 
	C1653.309082,623.261108 1644.117676,615.866333 1636.204712,607.369690 
	C1623.287354,593.499634 1613.028931,577.574097 1604.174561,560.776428 
	C1594.913452,543.206787 1588.267578,524.590942 1583.489746,505.441315 
	C1580.579346,493.776886 1579.233154,481.616333 1578.302368,469.592072 
	C1577.262939,456.165192 1576.613525,442.590729 1577.373413,429.169861 
	C1578.473633,409.739807 1581.942261,390.603058 1587.701538,371.885803 
	C1594.679443,349.208527 1604.259033,327.891327 1617.953491,308.434021 
	C1629.245728,292.389648 1643.062134,278.918274 1658.119141,266.431244 
	C1674.399292,252.929718 1691.441284,240.738251 1710.794434,232.117096 
	C1734.763550,221.439774 1759.462769,213.109421 1785.855347,211.014359 
	C1800.190674,209.876419 1814.553223,208.113495 1828.894531,208.194931 
	C1876.109009,208.463043 1919.740112,221.505630 1959.961792,246.325317 
	C1976.165161,256.324005 1991.188721,267.652313 2004.084351,281.661774 
	C2009.799438,287.870697 2015.086304,294.473938 2021.175659,301.610870 
	C1991.575562,327.254425 1962.421875,352.511139 1934.539917,376.666229 
	C1927.434204,370.367035 1920.646118,364.080597 1913.571045,358.135681 
	C1900.413940,347.080719 1886.704956,336.944397 1870.270142,330.967468 
	C1852.174683,324.386566 1833.471191,321.982452 1814.470581,323.095978 
	C1788.388550,324.624481 1764.055298,331.656433 1743.572266,349.583374 
z"/>
<path fill="#22B14C" opacity="1.000000" stroke="none" 
	d="
M4554.000000,257.000000 
	C4554.000000,241.835770 4553.622070,227.155823 4554.229980,212.516861 
	C4554.412598,208.125656 4556.741699,203.465668 4559.182129,199.623993 
	C4561.766602,195.554504 4566.702148,195.083710 4571.286133,193.798553 
	C4591.436523,188.149658 4611.890625,191.919312 4632.167969,191.253326 
	C4639.135254,191.024490 4646.817871,192.478668 4653.000488,195.536301 
	C4657.120605,197.574081 4661.269043,202.291199 4661.110840,208.814499 
	C4660.755859,223.470123 4661.000000,238.140289 4661.000000,252.804520 
	C4661.000000,254.450699 4661.000000,256.096893 4661.000000,258.831970 
	C4662.498047,257.739868 4663.518555,257.358002 4663.943359,256.628906 
	C4667.288574,250.886475 4670.851074,245.420090 4676.588379,241.620819 
	C4677.922852,240.736969 4678.064941,238.191360 4679.325195,237.026016 
	C4681.479004,235.034470 4684.086426,233.535858 4686.492188,231.814133 
	C4686.894043,231.526871 4687.484375,231.215393 4687.574219,230.820953 
	C4689.784668,221.134216 4700.013672,218.477951 4705.037109,211.034851 
	C4707.595703,207.243835 4713.459473,205.730606 4717.733887,203.036087 
	C4721.160156,200.876251 4724.389160,198.623535 4727.436523,195.716003 
	C4730.793945,192.512222 4736.580078,191.898407 4741.242676,189.995987 
	C4743.193848,189.199814 4744.869141,187.554459 4746.859863,187.063141 
	C4750.791504,186.092743 4754.834961,185.296143 4758.868164,185.071640 
	C4768.780273,184.519958 4778.729980,183.818466 4788.632324,184.148224 
	C4798.098633,184.463440 4807.985352,184.593933 4816.813477,187.479095 
	C4823.189941,189.563065 4831.664062,190.988220 4834.698730,198.978348 
	C4836.255859,203.078476 4837.786133,207.501053 4837.854492,211.801346 
	C4838.180176,232.292862 4838.320312,252.800232 4837.813477,273.284302 
	C4837.651855,279.837341 4836.173340,286.702179 4833.646484,292.732941 
	C4831.920898,296.852295 4826.527832,298.069794 4821.813477,297.951843 
	C4815.747559,297.800079 4809.878906,297.663574 4804.092285,294.420898 
	C4800.229492,292.256317 4794.035156,294.055695 4790.400879,291.720245 
	C4782.422852,286.593048 4774.145020,290.125732 4766.115234,289.108063 
	C4763.778320,288.811859 4760.561035,287.580597 4759.273438,291.661285 
	C4759.013184,292.485809 4756.320801,292.501099 4754.774414,292.969879 
	C4749.822266,294.471161 4744.729980,295.653900 4739.993164,297.668427 
	C4737.157715,298.874268 4734.840820,301.349701 4732.367676,303.349365 
	C4724.400391,309.791321 4716.918457,316.806915 4709.213867,323.498962 
	C4705.594238,326.642944 4703.372559,329.891693 4700.930176,333.617859 
	C4698.295898,337.636383 4694.734375,341.047852 4691.570801,344.718109 
	C4691.472656,344.831970 4691.254883,344.846100 4691.163574,344.962250 
	C4687.781738,349.251831 4684.193848,353.403320 4681.148438,357.920319 
	C4680.080078,359.505493 4680.044434,361.989471 4680.042969,364.063232 
	C4679.992188,445.549652 4680.035156,527.036194 4679.882324,608.522400 
	C4679.875488,612.137634 4678.206543,615.764221 4677.185547,619.349731 
	C4677.006836,619.978638 4676.289062,620.725159 4675.666016,620.916870 
	C4663.643555,624.616394 4651.815430,628.742920 4638.809082,628.141113 
	C4625.173340,627.510132 4611.485840,628.106140 4597.822754,627.954956 
	C4591.059082,627.880127 4584.173828,628.016052 4577.576172,626.797424 
	C4571.419922,625.660400 4565.408203,623.205566 4559.699707,620.544250 
	C4558.239746,619.863464 4558.654785,615.878784 4557.371582,613.976807 
	C4551.630859,605.467407 4554.120605,595.980164 4554.106934,586.945496 
	C4553.941895,477.130554 4554.000000,367.315216 4554.000000,257.000000 
z"/>
<path fill="#F9C964" opacity="1.000000" stroke="none" 
	d="
M1392.766846,214.146759 
	C1392.917847,214.391098 1392.769775,214.611237 1392.398682,214.902206 
	C1392.080688,214.641190 1392.178101,214.357697 1392.766846,214.146759 
z"/>
<path fill="#FFFFFF" opacity="1.000000" stroke="none" 
	d="
M5080.212402,535.998291 
	C5070.106934,530.699036 5058.896484,527.786743 5052.018066,518.138489 
	C5045.058594,516.705139 5045.687988,508.093079 5040.013184,505.440369 
	C5039.870117,505.373505 5039.684570,505.231262 5039.661621,505.099060 
	C5039.029297,501.510010 5037.158203,498.786865 5034.760254,495.990173 
	C5032.758789,493.656067 5031.996094,490.124023 5031.107910,487.002014 
	C5029.557617,481.552002 5029.788086,474.845917 5026.573730,470.822754 
	C5023.143555,466.530518 5024.943848,461.099609 5021.334961,457.502960 
	C5021.044434,457.213318 5021.056152,456.572510 5021.014648,456.087555 
	C5020.002930,444.145142 5018.748535,432.215240 5018.115234,420.252502 
	C5017.828125,414.837128 5017.606934,409.372284 5017.923828,403.900665 
	C5018.260742,398.089539 5017.395996,392.164917 5018.144531,386.432037 
	C5019.215332,378.229889 5021.292969,370.160431 5022.899414,362.026093 
	C5023.247070,360.265839 5023.145508,358.377075 5023.717773,356.707428 
	C5027.232422,346.446228 5030.478027,336.062164 5034.660156,326.073334 
	C5036.681152,321.244904 5040.476562,317.139313 5043.591797,312.794373 
	C5047.047363,307.972961 5050.624023,303.237030 5054.202637,298.505219 
	C5054.667969,297.889740 5055.400879,297.217957 5056.106934,297.084778 
	C5061.098145,296.143005 5064.653320,293.224884 5067.568848,289.255341 
	C5067.999023,288.670288 5068.940430,288.327606 5069.709473,288.144989 
	C5078.173828,286.135925 5085.686035,280.185730 5095.071777,281.990723 
	C5101.776367,276.061737 5109.812500,279.651245 5117.199707,279.225006 
	C5121.329102,278.986694 5125.642578,280.849304 5129.779785,282.078796 
	C5135.992188,283.924896 5142.455078,285.381683 5148.187988,288.250397 
	C5153.235352,290.775818 5157.445312,294.780731 5162.986816,296.868927 
	C5165.438477,297.792938 5167.106934,300.928802 5169.804199,302.768127 
	C5178.458984,308.670441 5186.410156,315.617340 5193.322266,323.634308 
	C5194.600098,325.116058 5196.617676,325.937103 5198.027832,327.332245 
	C5201.071289,330.342621 5203.902832,333.566071 5206.903320,336.621887 
	C5207.988770,337.727081 5209.308594,338.602142 5211.000000,339.969086 
	C5211.000000,342.977386 5211.000000,346.629303 5211.000000,350.281219 
	C5211.000000,389.596344 5210.676270,428.916382 5211.277344,468.222321 
	C5211.395020,475.964233 5207.325684,479.645355 5202.867188,484.019958 
	C5197.956543,488.838287 5191.676758,492.957214 5188.632324,498.764252 
	C5186.115234,503.564392 5181.434570,505.171509 5178.907715,509.233215 
	C5178.749512,509.487915 5178.479980,509.849609 5178.250977,509.857483 
	C5173.752441,510.012299 5171.765625,513.445068 5168.968750,516.238586 
	C5165.521973,519.680786 5161.108887,522.177002 5157.027344,524.954712 
	C5154.872559,526.421021 5152.570801,527.685791 5150.268066,528.915955 
	C5147.705566,530.284973 5145.145996,531.722534 5142.438477,532.740112 
	C5139.724609,533.760132 5136.631836,533.884216 5134.049316,535.120239 
	C5122.596191,540.600464 5110.405273,538.999573 5098.453125,538.839905 
	C5092.503906,538.760498 5086.577148,537.001282 5080.212402,535.998291 
z"/>
<path fill="#FFFFFF" opacity="1.000000" stroke="none" 
	d="
M306.727051,130.175888 
	C325.261505,135.904678 341.811279,144.116531 353.359680,159.924957 
	C361.836884,171.529236 366.492645,184.526566 365.980316,199.069092 
	C365.594696,210.013138 366.397339,221.233917 364.231445,231.832977 
	C359.254272,256.189789 342.840637,271.423523 320.628082,280.850464 
	C300.604401,289.348450 279.407410,292.666504 257.856476,292.873810 
	C215.213531,293.284058 172.564484,293.063477 129.917953,293.091766 
	C128.789536,293.092529 127.661011,292.956238 126.256592,292.866150 
	C126.256592,236.239563 126.256592,179.869583 126.256592,123.171150 
	C127.901627,123.086151 129.353760,122.945320 130.805878,122.945663 
	C171.620102,122.955353 212.437592,122.685326 253.247070,123.136581 
	C271.132080,123.334335 289.000092,125.014656 306.727051,130.175888 
z"/>
<path fill="#FFFFFF" opacity="1.000000" stroke="none" 
	d="
M1348.189453,548.208374 
	C1328.913696,561.800232 1307.394287,568.361328 1284.667480,570.984924 
	C1245.995605,575.449219 1212.506470,564.902954 1183.824341,537.568298 
	C1164.886963,519.520447 1154.687988,497.912140 1150.155151,472.907990 
	C1142.567261,431.050995 1154.685913,393.973572 1180.412842,361.670532 
	C1198.978882,338.358612 1223.870117,323.130066 1254.337524,320.387756 
	C1303.479492,315.964600 1345.578125,330.757599 1378.423340,368.711700 
	C1380.610596,371.238983 1383.010864,373.511108 1380.787842,377.661102 
	C1379.654663,379.776520 1380.276367,382.885529 1380.275024,385.545502 
	C1380.253784,427.522278 1380.321533,469.499298 1380.132202,511.475220 
	C1380.118530,514.519836 1378.921509,517.996399 1377.183228,520.520447 
	C1369.538208,531.621704 1359.518188,540.371216 1348.189453,548.208374 
z"/>
<path fill="#FFFFFF" opacity="1.000000" stroke="none" 
	d="
M655.157715,381.144958 
	C652.890320,381.145050 651.099731,381.145050 648.999207,381.145050 
	C650.832275,367.863068 656.340454,356.825226 663.331848,346.332611 
	C679.652466,321.838867 703.086243,308.428314 731.452148,303.378204 
	C748.772522,300.294556 765.898682,301.682434 781.984680,309.864532 
	C789.938477,313.910248 799.328857,316.289032 805.708557,322.040558 
	C820.782837,335.630554 831.865051,352.458893 838.140564,372.043823 
	C838.982422,374.671417 838.934875,377.583984 839.401428,381.144867 
	C777.829224,381.144867 716.731873,381.144867 655.157715,381.144958 
z"/>
<path fill="#FFFFFF" opacity="1.000000" stroke="none" 
	d="
M4156.999512,472.021149 
	C4162.742676,464.574371 4169.653809,459.292053 4177.607422,454.648621 
	C4182.833008,451.598083 4188.518555,450.163788 4193.704590,447.347961 
	C4196.447754,445.858582 4200.006348,445.952148 4203.099609,445.012390 
	C4220.167480,439.827209 4237.859375,441.266907 4255.244141,439.545013 
	C4271.680664,437.916962 4287.995117,438.685089 4304.347168,438.005615 
	C4305.331543,437.964691 4306.318848,438.000244 4307.650391,438.000244 
	C4307.776855,439.434784 4307.985352,440.697754 4307.986328,441.960907 
	C4308.005859,463.291595 4308.005371,484.622253 4307.994629,505.952911 
	C4307.992676,509.739197 4303.364746,515.500793 4299.897461,517.117920 
	C4298.025391,517.991089 4296.743652,520.086670 4295.119629,521.546082 
	C4291.479492,524.818115 4289.194336,529.544495 4283.273926,530.286987 
	C4280.448730,530.641357 4277.597656,533.201294 4275.368652,535.384766 
	C4271.091797,539.574036 4265.132324,541.301697 4260.936035,544.710815 
	C4256.505371,548.309875 4251.360352,548.615723 4247.019531,551.353943 
	C4245.361816,552.399597 4242.795410,551.880859 4240.869629,552.646240 
	C4228.169922,557.693176 4214.892090,555.949219 4201.824707,555.759094 
	C4198.814453,555.715332 4195.889160,553.050537 4192.315430,552.431641 
	C4185.842285,551.310425 4179.590332,548.887085 4173.277344,546.907410 
	C4172.726074,546.734558 4172.393066,545.831970 4171.981445,545.252258 
	C4171.420898,544.463135 4171.060547,543.254272 4170.307129,542.921814 
	C4160.820801,538.734009 4155.523438,531.494324 4153.851562,521.321289 
	C4153.661133,520.159668 4151.796387,519.365906 4151.037109,518.189209 
	C4147.395020,512.545471 4149.143066,506.196777 4149.134277,500.170929 
	C4149.127441,495.491821 4149.824707,490.663757 4151.133301,486.171082 
	C4152.515625,481.423248 4154.993164,476.994232 4156.999512,472.021149 
z"/>
</svg>