<?xml version="1.0" standalone="no"?>
<!DOCTYPE svg PUBLIC "-//W3C//DTD SVG 20010904//EN"
 "http://www.w3.org/TR/2001/REC-SVG-20010904/DTD/svg10.dtd">
<svg version="1.0" xmlns="http://www.w3.org/2000/svg"
 width="150.000000pt" height="28.000000pt" viewBox="0 0 150.000000 28.000000"
 preserveAspectRatio="xMidYMid meet">

<g transform="translate(0.000000,28.000000) scale(0.100000,-0.100000)"
fill="#000000" stroke="none">
<path d="M217 246 c-20 -14 -48 -26 -64 -29 l-28 -4 28 -2 c22 -1 27 -6 27
-26 0 -25 14 -33 25 -15 9 15 42 12 48 -4 9 -23 -21 -42 -44 -28 -28 18 -83
14 -111 -7 -13 -11 -40 -21 -59 -24 l-34 -4 37 -1 c29 -2 36 -5 32 -17 -5 -13
8 -15 80 -15 52 0 94 5 106 12 17 11 22 10 29 -1 5 -8 7 -20 4 -28 -6 -15 -39
-18 -48 -3 -3 6 -43 10 -87 10 -81 0 -81 0 -63 -20 18 -19 29 -20 223 -18 204
3 205 3 213 26 7 18 3 28 -16 48 -14 14 -25 32 -25 40 0 23 -55 74 -80 74 -12
0 -38 14 -57 30 -42 37 -86 39 -136 6z"/>
<path d="M580 135 l0 -115 105 0 c98 0 105 1 105 20 0 18 -7 20 -85 20 l-85 0
0 75 0 75 85 0 c78 0 85 2 85 20 0 19 -7 20 -105 20 l-105 0 0 -115z"/>
<path d="M810 230 c0 -17 7 -20 45 -20 l45 0 0 -95 c0 -88 1 -95 20 -95 19 0
20 7 20 95 l0 95 45 0 c38 0 45 3 45 20 0 19 -7 20 -110 20 -103 0 -110 -1
-110 -20z"/>
<path d="M1060 135 l0 -115 100 0 c93 0 100 1 100 20 0 18 -7 20 -80 20 l-80
0 0 75 0 75 80 0 c73 0 80 2 80 20 0 19 -7 20 -100 20 l-100 0 0 -115z"/>
<path d="M1300 135 l0 -115 95 0 c88 0 95 1 95 20 0 18 -7 20 -75 20 l-75 0 0
95 c0 88 -1 95 -20 95 -19 0 -20 -7 -20 -115z"/>
<path d="M217 164 c-8 -8 1 -24 14 -24 5 0 9 7 9 15 0 15 -12 20 -23 9z"/>
<path d="M650 135 c0 -12 14 -15 65 -15 51 0 65 3 65 15 0 12 -14 15 -65 15
-51 0 -65 -3 -65 -15z"/>
<path d="M1130 135 c0 -12 13 -15 60 -15 47 0 60 3 60 15 0 12 -13 15 -60 15
-47 0 -60 -3 -60 -15z"/>
<path d="M260 65 c0 -9 5 -15 11 -13 6 2 11 8 11 13 0 5 -5 11 -11 13 -6 2
-11 -4 -11 -13z"/>
</g>
</svg>
